<?xml version="1.0" standalone="no"?>
<!DOCTYPE svg PUBLIC "-//W3C//DTD SVG 20010904//EN"
 "http://www.w3.org/TR/2001/REC-SVG-20010904/DTD/svg10.dtd">
<svg version="1.0" xmlns="http://www.w3.org/2000/svg"
 width="192.000000pt" height="192.000000pt" viewBox="0 0 192.000000 192.000000"
 preserveAspectRatio="xMidYMid meet">
<metadata>
Created by potrace 1.14, written by Peter Selinger 2001-2017
</metadata>
<g transform="translate(0.000000,192.000000) scale(0.100000,-0.100000)"
fill="#000000" stroke="none">
<path d="M745 1377 c-35 -37 -76 -66 -118 -85 -70 -32 -87 -58 -87 -133 0 -23
-13 -63 -35 -105 -43 -82 -44 -113 -4 -177 19 -31 32 -68 36 -101 10 -101 19
-115 90 -148 42 -19 82 -48 118 -85 l55 -56 62 8 c79 10 117 10 196 0 l63 -8
52 55 c36 39 72 65 118 86 36 16 69 38 73 48 5 11 12 48 16 84 5 46 16 80 39
116 18 30 31 65 31 84 0 19 -13 54 -31 84 -23 36 -34 70 -39 116 -4 36 -11 73
-16 84 -4 10 -36 32 -71 48 -42 19 -83 48 -118 85 l-55 56 -62 -8 c-35 -5 -79
-8 -98 -8 -19 0 -63 3 -98 8 l-62 8 -55 -56z m77 -277 c27 -8 44 -8 58 0 27
15 26 9 -15 -55 -52 -80 -54 -89 -22 -83 31 6 32 5 11 -17 -9 -8 -24 -13 -34
-10 -13 4 -26 -7 -50 -45 -18 -28 -30 -53 -27 -56 3 -3 35 -7 71 -7 65 -2 65
-2 46 -21 -18 -18 -23 -19 -70 -7 -28 7 -62 10 -76 7 -23 -6 -22 -2 25 68 49
72 55 91 23 79 -10 -4 -13 -2 -8 5 4 7 17 12 29 12 16 0 30 14 50 49 l27 49
-59 7 c-33 4 -65 4 -70 0 -6 -3 -11 -2 -11 4 0 12 29 30 50 31 8 0 32 -5 52
-10z m151 -12 c8 -29 1 -36 -8 -8 -4 12 -12 19 -18 17 -17 -5 -27 -62 -25
-138 l2 -67 19 25 c12 15 27 23 41 21 18 -3 22 -11 26 -60 3 -31 9 -60 13 -64
13 -13 36 29 37 67 0 31 14 59 30 59 3 0 3 -25 2 -56 -7 -98 38 -96 63 2 18
71 35 68 35 -5 0 -33 4 -63 10 -66 5 -3 19 9 30 27 11 18 20 29 20 23 0 -20
-40 -75 -55 -75 -9 0 -22 14 -29 32 -13 29 -14 30 -20 10 -13 -41 -76 -55 -76
-17 0 21 -9 19 -29 -7 -30 -36 -50 -18 -53 49 -2 43 -7 59 -18 61 -17 3 -50
-55 -50 -87 0 -10 -7 -25 -16 -32 -16 -13 -17 -3 -12 127 3 78 10 150 17 162
16 30 57 30 64 0z m-23 -120 c-11 -24 -17 -34 -14 -23 4 11 12 40 18 64 7 30
12 38 14 23 2 -11 -6 -40 -18 -64z"/>
</g>
</svg>
