<?xml version="1.0" standalone="no"?>
<!DOCTYPE svg PUBLIC "-//W3C//DTD SVG 20010904//EN"
 "http://www.w3.org/TR/2001/REC-SVG-20010904/DTD/svg10.dtd">
<svg version="1.0" xmlns="http://www.w3.org/2000/svg"
 width="192.000000pt" height="192.000000pt" viewBox="0 0 192.000000 192.000000"
 preserveAspectRatio="xMidYMid meet">
<metadata>
Created by potrace 1.14, written by Peter Selinger 2001-2017
</metadata>
<g transform="translate(0.000000,192.000000) scale(0.100000,-0.100000)"
fill="#000000" stroke="none">
<path d="M818 1429 c-37 -14 -58 -28 -61 -41 -5 -18 -4 -19 12 -4 10 9 27 16
40 16 12 0 24 6 27 14 5 12 32 14 140 13 86 -1 137 -6 142 -13 8 -13 52 -29
52 -19 0 3 -21 15 -47 27 -70 31 -229 35 -305 7z"/>
<path d="M697 1369 c-68 -44 -142 -133 -182 -215 l-34 -71 3 -135 c2 -126 5
-140 30 -191 44 -86 107 -159 182 -210 76 -52 125 -66 251 -74 92 -6 197 19
245 57 15 11 29 20 33 20 18 0 106 85 136 131 40 63 79 169 79 216 0 48 -7 39
-25 -31 -23 -87 -59 -155 -115 -218 -48 -54 -130 -118 -151 -118 -5 0 -17 -4
-27 -9 -69 -35 -226 -35 -317 1 -53 21 -165 92 -177 113 -4 7 -23 31 -42 54
-32 38 -63 117 -84 216 -11 53 11 235 29 235 5 0 9 6 9 13 0 7 16 36 35 64 19
29 35 58 35 64 0 7 3 10 6 6 7 -7 114 77 127 99 11 20 6 18 -46 -17z"/>
<path d="M1192 1384 c10 -10 20 -15 24 -12 3 4 -5 12 -18 18 -22 12 -22 12 -6
-6z"/>
</g>
</svg>
