<?xml version="1.0" standalone="no"?>
<!DOCTYPE svg PUBLIC "-//W3C//DTD SVG 20010904//EN"
 "http://www.w3.org/TR/2001/REC-SVG-20010904/DTD/svg10.dtd">
<svg version="1.0" xmlns="http://www.w3.org/2000/svg"
 width="3400.000000pt" height="3400.000000pt" viewBox="0 0 3400.000000 3400.000000"
 preserveAspectRatio="xMidYMid meet">
<metadata>
Created by potrace 1.14, written by Peter Selinger 2001-2017
</metadata>
<g transform="translate(0.000000,3400.000000) scale(0.100000,-0.100000)"
fill="#000000" stroke="none">
<path d="M15420 31993 c-14 -2 -70 -13 -124 -23 -55 -11 -136 -23 -180 -26
-114 -9 -519 -77 -667 -113 -68 -17 -137 -33 -154 -36 -16 -2 -57 -10 -90 -16
-33 -6 -69 -12 -80 -14 -11 -1 -47 -6 -80 -11 -33 -4 -64 -8 -70 -8 -5 -1 -11
-25 -13 -54 -3 -55 -6 -58 -57 -65 -16 -3 -41 -8 -55 -11 -14 -3 -36 -8 -50
-10 -39 -6 -188 -45 -260 -67 -36 -11 -72 -22 -80 -24 -8 -2 -58 -18 -110 -35
-52 -18 -102 -33 -110 -35 -30 -6 -236 -79 -285 -100 -27 -13 -67 -29 -87 -36
-44 -15 -46 -21 -18 -56 11 -14 20 -29 20 -33 0 -7 -64 -38 -90 -42 -8 -2 -17
-6 -20 -9 -11 -12 -371 -116 -465 -134 -11 -2 -20 -4 -20 -5 0 -1 -7 -3 -15
-5 -8 -2 -24 -6 -35 -9 -23 -6 -182 -46 -205 -51 -8 -2 -50 -13 -93 -25 -43
-12 -88 -23 -100 -26 -12 -2 -31 -6 -42 -8 -21 -5 -180 -53 -203 -61 -7 -2
-14 -5 -17 -6 -2 0 -56 -20 -120 -44 -63 -23 -115 -39 -115 -35 0 9 94 51 165
74 53 17 98 42 60 32 -11 -2 -33 -7 -50 -10 -16 -4 -41 -9 -55 -12 -14 -3 -34
-6 -45 -8 -54 -9 -233 -66 -302 -97 -24 -10 -46 -19 -49 -19 -20 0 -301 -146
-419 -217 -11 -7 -27 -16 -35 -20 -43 -21 -155 -89 -326 -199 -164 -106 -302
-184 -444 -255 -64 -31 -242 -109 -251 -109 -5 0 -46 -27 -91 -59 -98 -70
-217 -131 -250 -130 -34 2 -69 -14 -161 -76 -73 -48 -303 -217 -334 -244 -13
-11 -70 -4 -79 10 -2 4 -11 6 -19 2 -27 -10 -15 15 18 38 17 13 34 27 35 31 2
4 10 8 18 8 8 0 14 3 14 8 0 8 38 31 140 83 41 22 73 39 70 39 -19 0 -363
-100 -393 -115 -54 -26 -49 -50 14 -65 49 -12 50 -13 32 -32 -10 -11 -36 -29
-58 -39 -22 -10 -46 -29 -54 -41 -12 -20 -11 -24 8 -37 13 -8 36 -16 54 -18
17 -2 33 -5 35 -8 2 -2 -22 -31 -55 -63 -32 -33 -70 -75 -83 -94 -17 -26 -31
-35 -54 -36 -71 -2 -148 -42 -236 -122 -19 -17 -50 -44 -69 -58 -19 -15 -39
-32 -45 -37 -56 -54 -160 -103 -226 -108 -16 -1 -35 -16 -54 -42 -27 -37 -113
-124 -282 -286 -210 -202 -386 -439 -375 -506 1 -8 -9 -13 -22 -13 -47 0 -244
-165 -346 -290 -20 -25 -41 -51 -48 -57 -6 -7 -13 -18 -15 -25 -3 -9 -23 -8
-81 4 -75 15 -77 15 -89 -6 -21 -33 -72 -140 -136 -281 -65 -143 -68 -147
-208 -221 -127 -67 -163 -52 -124 52 16 40 7 38 -21 -4 -14 -20 -79 -116 -144
-212 -65 -96 -144 -213 -176 -260 -58 -87 -152 -247 -196 -333 l-24 -48 -20
25 c-10 13 -19 29 -19 35 0 6 -3 11 -7 11 -10 -1 -63 -84 -63 -99 0 -6 -4 -11
-9 -11 -5 0 -11 -8 -15 -17 -3 -10 -24 -49 -46 -88 -22 -38 -43 -78 -46 -87
-4 -10 -9 -18 -13 -18 -3 0 -13 -15 -20 -32 -8 -18 -20 -38 -25 -44 -6 -6 -20
-23 -31 -39 -31 -43 -56 -68 -100 -101 -45 -33 -135 -123 -210 -208 -27 -32
-55 -63 -60 -69 -6 -7 -26 -32 -45 -57 -19 -25 -41 -52 -47 -60 -128 -157
-195 -254 -449 -653 -27 -42 -53 -85 -59 -95 -5 -9 -12 -19 -15 -22 -25 -23
-598 -1031 -685 -1205 -11 -22 -23 -42 -26 -45 -3 -3 -30 -52 -60 -110 -30
-58 -56 -107 -59 -110 -3 -3 -12 -18 -20 -35 -8 -16 -41 -76 -72 -133 -32 -57
-58 -106 -58 -109 0 -2 15 -2 34 1 58 9 55 -30 -7 -119 -58 -83 -115 -172
-139 -216 -14 -25 -30 -54 -36 -65 -44 -78 -60 -155 -38 -176 10 -10 2 -21
-37 -53 -87 -70 -88 -70 -89 -15 -1 33 -18 21 -18 -13 0 -10 -7 -31 -15 -46
-8 -16 -16 -39 -19 -52 -3 -13 -14 -49 -26 -79 -12 -30 -23 -63 -25 -73 -2 -9
-7 -22 -10 -27 -3 -5 -8 -19 -10 -30 -2 -10 -10 -34 -18 -52 -8 -18 -20 -46
-27 -63 -7 -16 -14 -35 -16 -42 -1 -7 -15 -38 -30 -70 -15 -32 -28 -60 -29
-63 0 -3 -11 -32 -24 -65 -29 -76 -68 -212 -76 -262 -3 -21 -8 -50 -10 -63 -3
-14 -6 -71 -7 -128 -2 -97 -3 -103 -22 -100 -15 2 -24 17 -37 58 -19 64 -23
57 -39 -55 -13 -87 -46 -178 -64 -172 -13 4 -15 64 -6 137 10 76 -5 46 -28
-55 -23 -104 -37 -180 -46 -260 -6 -60 15 -177 43 -238 29 -63 66 -104 133
-149 l37 -24 -30 -90 c-54 -160 -80 -274 -80 -354 1 -76 3 -95 23 -186 l11
-52 -48 -61 c-61 -80 -73 -72 -69 42 l2 82 -13 -60 c-7 -33 -16 -73 -19 -90
-2 -16 -7 -39 -9 -50 -3 -11 -12 -50 -21 -86 -8 -37 -18 -80 -21 -95 -15 -84
-24 -145 -30 -199 -3 -33 -8 -69 -10 -80 -5 -25 -14 -90 -30 -215 -22 -178
-13 -400 16 -400 6 0 8 -8 5 -17 -14 -48 -21 -177 -17 -313 2 -36 -6 -117 -17
-180 -26 -144 -33 -216 -37 -355 -2 -60 -6 -191 -9 -290 -4 -152 -3 -173 7
-132 7 27 16 49 21 50 15 3 45 -65 57 -129 8 -40 9 -115 4 -229 -5 -93 -8
-217 -7 -275 0 -58 -3 -109 -8 -115 -14 -17 -22 -144 -21 -315 1 -176 3 -190
30 -290 15 -55 17 -107 17 -342 -1 -153 0 -278 2 -278 1 0 21 12 45 27 45 29
64 30 85 5 44 -55 57 -124 54 -287 -7 -345 -2 -591 14 -700 4 -27 8 -54 8 -60
3 -30 40 -165 46 -165 7 0 8 11 13 97 4 71 14 65 33 -22 9 -38 6 -201 -5 -280
-6 -45 -13 -96 -16 -115 -5 -37 -41 -247 -50 -290 -12 -59 -20 -151 -20 -233
0 -48 -2 -87 -5 -87 -8 0 -37 56 -60 115 l-20 50 5 -52 c8 -99 37 -248 54
-278 16 -28 21 -30 77 -30 70 0 87 -12 132 -97 34 -62 47 -116 34 -136 -5 -8
-27 -16 -48 -19 -50 -6 -66 -22 -69 -70 -4 -58 31 -209 67 -293 39 -90 133
-274 160 -312 11 -16 16 -28 13 -28 -3 0 2 -12 13 -28 41 -57 242 -445 242
-466 0 -9 5 -16 11 -16 5 0 7 -4 4 -10 -3 -5 -1 -10 4 -10 6 0 11 -7 11 -15 0
-8 11 -38 25 -67 27 -59 72 -191 86 -253 5 -22 11 -45 12 -52 7 -29 12 -18 13
28 0 32 6 55 16 66 15 15 20 13 58 -28 22 -24 52 -69 66 -99 14 -30 32 -68 40
-84 8 -16 14 -37 14 -46 0 -9 3 -20 7 -24 4 -3 8 -12 10 -19 6 -28 164 -494
174 -512 5 -12 11 -27 13 -35 2 -8 8 -28 15 -45 82 -201 179 -359 270 -437 38
-32 59 -76 47 -96 -3 -5 -26 10 -51 35 -25 24 -50 41 -56 38 -14 -10 50 -81
86 -95 23 -9 74 -72 200 -247 184 -254 189 -261 223 -301 12 -15 42 -52 65
-82 46 -60 224 -240 237 -240 5 0 8 -24 8 -52 0 -29 1 -55 2 -58 1 -3 3 -16 6
-29 5 -30 52 -137 75 -171 9 -14 32 -50 52 -80 19 -30 49 -73 66 -95 17 -22
41 -53 54 -70 62 -83 183 -218 307 -345 41 -42 116 -120 165 -175 87 -95 106
-115 171 -187 98 -110 135 -200 105 -256 -10 -20 -7 -27 26 -64 21 -22 47 -51
58 -64 107 -120 165 -182 328 -345 169 -171 206 -212 178 -194 -5 3 -12 1 -15
-4 -5 -7 83 -114 115 -141 3 -3 43 -38 88 -79 44 -41 91 -81 104 -90 12 -8 27
-20 33 -26 6 -5 22 -18 35 -28 13 -9 51 -38 84 -62 58 -44 217 -130 281 -152
17 -6 41 -25 53 -42 23 -32 21 -35 -27 -33 -19 1 9 -31 126 -147 282 -278 352
-333 642 -516 48 -30 250 -145 256 -145 1 0 40 -17 86 -39 46 -21 108 -50 140
-65 l56 -26 0 -56 c-1 -56 -1 -56 43 -82 39 -23 164 -115 179 -132 3 -3 43
-34 90 -70 47 -35 94 -72 105 -82 11 -9 86 -67 167 -127 80 -60 152 -114 160
-120 85 -70 226 -163 399 -262 151 -87 468 -248 531 -270 41 -14 42 -29 3 -24
-44 4 -27 -9 48 -39 114 -46 438 -210 739 -375 153 -83 280 -151 283 -151 3 0
24 -12 47 -26 23 -14 46 -27 52 -28 6 -1 16 -5 23 -9 6 -4 54 -28 105 -53 51
-25 109 -54 128 -64 57 -30 229 -99 325 -132 50 -16 97 -32 105 -35 8 -3 26
-7 40 -9 14 -2 36 -6 50 -10 39 -11 51 -13 102 -16 27 -2 48 -7 48 -11 0 -5 4
-5 10 -2 5 3 38 8 72 10 35 2 81 10 103 18 42 14 71 15 118 3 15 -3 49 -9 75
-12 26 -3 58 -7 72 -10 14 -3 52 -7 85 -10 33 -2 71 -7 85 -10 14 -2 47 -7 74
-10 28 -3 53 -7 58 -10 4 -3 8 -1 8 5 0 5 -14 13 -32 16 -18 4 -39 11 -48 16
-13 6 -42 18 -60 24 -3 1 -18 8 -35 16 -58 27 -71 53 -32 65 23 7 33 9 102 19
54 7 105 25 105 35 0 5 -10 16 -22 26 l-23 16 25 -6 c14 -4 32 -9 40 -11 8 -2
34 -10 58 -19 23 -8 43 -15 45 -15 1 0 16 -5 32 -11 46 -16 55 -19 60 -20 13
-1 174 -87 203 -108 49 -37 43 -55 -15 -48 -75 10 -78 11 -106 28 -21 15 -27
15 -36 4 -7 -8 -10 -20 -9 -27 3 -13 51 -59 62 -59 3 0 25 -9 49 -19 52 -24
226 -81 247 -81 9 0 21 -5 28 -12 7 -7 12 -9 12 -6 0 4 24 0 53 -9 28 -8 57
-16 62 -18 126 -28 330 -95 373 -123 12 -8 22 -21 22 -28 0 -8 2 -14 5 -14 3
0 38 -6 78 -14 126 -25 328 -62 387 -71 19 -3 58 -10 85 -15 28 -5 66 -12 85
-14 19 -3 46 -8 60 -10 14 -2 72 -12 130 -21 58 -8 134 -20 170 -26 103 -16
110 -17 210 -29 52 -6 106 -13 120 -16 14 -2 49 -6 78 -10 29 -3 62 -7 73 -9
11 -2 50 -7 87 -10 37 -3 74 -8 82 -10 8 -2 44 -6 80 -10 82 -7 155 -15 200
-20 40 -5 114 -12 215 -20 39 -3 93 -8 120 -10 242 -23 672 -39 1020 -39 218
0 650 11 755 19 30 3 91 7 135 9 278 17 323 21 331 29 3 2 -32 28 -76 57 -44
29 -79 54 -78 55 2 1 44 5 93 9 50 4 104 8 120 10 32 4 117 13 205 22 30 3 58
8 61 10 13 7 107 -26 112 -40 12 -32 -103 -71 -223 -76 l-35 -2 29 -8 c48 -15
135 -2 281 41 58 16 223 95 260 123 26 20 48 25 127 31 203 15 211 -18 23
-102 -38 -17 -96 -43 -129 -58 -32 -14 -57 -28 -54 -30 4 -4 242 41 268 51 12
5 11 8 -5 14 -18 8 -18 9 -2 9 10 1 62 23 115 51 53 27 150 68 215 90 277 94
429 115 501 71 49 -30 119 -23 306 30 19 6 82 24 140 41 179 51 312 87 345 92
17 3 42 10 56 15 24 10 24 10 -6 11 -64 4 -219 21 -223 25 -6 5 203 94 231 99
7 1 45 15 85 31 67 26 72 30 55 42 -10 8 -27 12 -37 9 -12 -3 -15 -1 -9 5 5 5
38 11 74 14 35 2 78 7 94 10 17 3 41 8 54 10 22 4 129 27 141 30 3 1 19 5 35
9 55 13 226 61 295 83 8 2 15 4 15 3 0 0 38 13 85 30 47 18 92 33 100 35 8 2
17 4 20 5 3 1 8 2 13 1 4 0 7 3 7 9 0 6 3 9 8 8 4 -1 23 4 42 11 19 8 38 15
43 16 4 1 9 4 12 5 3 1 8 3 13 5 4 1 16 5 27 10 11 4 43 17 70 27 48 19 87 35
150 63 17 7 69 29 117 49 116 48 189 82 473 221 294 144 449 217 495 235 19 8
117 75 217 150 100 74 232 164 295 199 166 95 588 350 588 356 0 1 -18 -1 -39
-5 -79 -14 -95 33 -33 97 35 36 176 133 194 133 4 0 8 -8 8 -17 1 -58 65 -73
163 -38 80 27 245 116 323 172 10 8 30 20 77 46 12 6 24 14 27 17 24 25 309
170 334 170 9 0 16 5 16 10 0 6 9 10 20 10 29 0 69 21 64 34 -7 18 137 161
282 281 26 22 62 54 80 70 17 17 54 51 82 76 69 63 151 167 148 187 -4 22 -29
27 -66 13 -17 -5 -30 -9 -30 -7 0 8 91 66 113 71 21 6 32 1 57 -25 32 -33 37
-33 105 -5 17 7 69 52 115 100 155 159 306 309 366 363 65 59 261 245 409 387
51 49 137 131 191 180 132 121 262 252 424 424 74 79 142 151 150 160 73 77
267 318 288 358 7 12 18 27 25 35 25 25 58 78 50 79 -4 0 -26 1 -48 2 l-40 2
2 45 c1 25 3 51 4 58 1 8 36 36 76 64 64 43 155 109 320 232 23 17 53 39 66
49 34 25 57 95 64 192 2 44 9 84 14 90 5 5 9 15 9 22 0 23 55 102 110 158 54
56 58 67 15 39 -23 -15 -25 -15 -31 1 -10 25 4 49 121 206 205 276 425 624
617 974 110 201 345 686 423 875 15 36 31 72 36 80 11 18 4 2 89 215 91 228
115 289 116 295 0 3 6 18 12 33 7 16 12 31 12 34 0 3 6 19 14 36 21 48 125
340 126 352 0 3 6 18 15 35 8 16 16 37 18 47 2 10 9 28 15 41 7 12 11 22 8 22
-3 0 2 17 10 37 9 20 17 44 19 52 2 9 19 61 38 116 60 173 283 874 292 918 2
9 7 22 10 27 4 6 8 22 11 36 3 14 11 45 20 67 8 23 17 53 20 66 3 14 7 28 10
33 3 5 8 20 10 35 3 15 8 31 12 37 3 6 7 16 8 22 2 13 62 212 71 234 3 8 7 21
9 28 2 10 47 161 59 200 3 7 5 13 5 15 1 4 25 83 95 306 37 118 69 222 72 230
2 9 -8 -5 -23 -31 -40 -70 -49 -64 -45 27 2 36 8 80 11 80 0 0 2 23 4 50 3 41
2 46 -7 28 -13 -30 -25 -29 -67 7 -19 16 -39 30 -43 30 -8 0 1 67 12 85 3 6 6
19 7 30 0 11 4 34 8 50 4 17 9 37 11 45 6 28 26 105 34 130 11 32 40 129 46
155 3 11 16 65 30 120 15 55 28 114 31 130 3 17 10 45 15 63 7 21 7 37 1 45
-33 42 -44 233 -27 477 12 168 10 396 -3 445 -7 22 -18 49 -26 60 -16 21 -16
20 -1 -175 4 -59 3 -63 -10 -45 -41 56 -55 64 -85 53 -17 -5 -43 -26 -59 -46
-30 -40 -131 -198 -131 -207 0 -10 -99 -154 -131 -190 -17 -19 -48 -40 -68
-46 l-38 -11 9 -47 c11 -53 17 -201 9 -201 -3 0 -6 -17 -5 -37 0 -21 -4 -51
-9 -68 -10 -34 -26 -92 -32 -118 -2 -9 -7 -22 -10 -27 -3 -5 -8 -19 -10 -29
-2 -11 -18 -61 -35 -111 -17 -50 -33 -99 -35 -108 -9 -44 -51 -198 -55 -202
-3 -3 -6 -10 -7 -16 -6 -33 -13 -66 -28 -134 -9 -41 -18 -86 -20 -100 -20
-142 -23 -245 -12 -375 7 -83 -3 -126 -23 -95 -5 8 -12 32 -15 52 -4 21 -11
41 -17 44 -16 10 -27 -17 -18 -42 5 -12 6 -25 3 -28 -4 -3 -1 -6 5 -6 9 0 11
-31 8 -112 -5 -120 -9 -148 -33 -243 -8 -33 -17 -71 -19 -84 -3 -13 -9 -32
-15 -43 -5 -10 -7 -18 -3 -18 3 0 2 -6 -4 -12 -6 -7 -11 -16 -11 -20 -6 -53
-22 -99 -32 -92 -5 3 -6 11 -3 17 5 8 4 9 -3 2 -6 -5 -16 -37 -22 -70 -7 -33
-14 -68 -17 -77 -2 -10 -6 -27 -9 -38 -3 -11 -7 -28 -9 -37 -3 -10 -16 -56
-31 -103 -14 -47 -27 -92 -29 -100 -3 -8 -11 -35 -19 -60 -8 -25 -34 -103 -57
-175 -22 -71 -44 -137 -47 -145 -3 -8 -7 -19 -9 -25 -4 -18 -74 -209 -83 -230
-6 -11 -33 -76 -61 -145 -28 -69 -62 -149 -76 -178 -13 -29 -24 -54 -24 -57 0
-2 -23 -51 -50 -110 -28 -59 -50 -108 -50 -110 0 -5 -168 -357 -287 -602 -33
-68 -58 -125 -55 -127 2 -3 16 1 31 8 14 7 38 16 54 20 l27 6 -32 -57 c-44
-78 -67 -114 -135 -205 -62 -83 -71 -109 -47 -133 14 -14 17 -13 34 7 28 33
24 16 -8 -39 -16 -26 -46 -79 -66 -118 -21 -38 -51 -92 -66 -120 -49 -90 -86
-158 -135 -255 -27 -52 -53 -98 -58 -101 -5 -3 -9 -10 -10 -15 -2 -19 -176
-296 -189 -302 -5 -2 -8 -8 -8 -13 0 -10 -62 -98 -104 -148 -39 -46 -111 -110
-141 -127 -26 -14 -75 -79 -81 -106 -1 -5 -3 -9 -4 -10 -1 -2 -4 -13 -5 -26
-2 -21 1 -22 31 -18 44 7 48 -3 19 -47 -14 -20 -25 -39 -25 -42 0 -15 -39 -45
-83 -64 l-47 -20 6 -64 c6 -62 5 -65 -27 -103 -87 -102 -178 -174 -248 -194
-37 -10 -38 -8 -6 34 14 18 25 36 25 40 0 3 12 25 26 47 31 50 26 60 -12 21
-70 -71 -145 -172 -228 -307 -60 -95 -159 -250 -198 -309 -7 -10 -26 -37 -41
-60 l-28 -41 32 35 c18 19 52 57 76 83 23 27 43 46 43 42 0 -8 -281 -386 -324
-436 -17 -19 -40 -46 -51 -60 -104 -125 -129 -154 -141 -166 -7 -7 -30 -35
-51 -60 -21 -26 -45 -54 -53 -63 -8 -9 -42 -47 -75 -85 -81 -93 -126 -144
-150 -170 -11 -12 -58 -64 -104 -116 -126 -140 -119 -133 -408 -426 -357 -362
-691 -702 -726 -740 l-28 -31 40 8 c23 4 41 6 41 3 0 -9 -209 -207 -255 -242
-102 -77 -290 -208 -374 -260 -170 -106 -402 -265 -455 -313 -11 -10 -24 -18
-29 -18 -5 0 -44 -33 -86 -73 -65 -62 -131 -120 -178 -157 -15 -12 -157 -108
-198 -134 -22 -14 -27 -15 -17 -4 16 20 1 32 -31 24 -12 -3 -26 -6 -32 -7 -5
0 -17 -5 -26 -10 -9 -4 -27 -10 -40 -13 -13 -3 -39 -9 -57 -15 -42 -13 -68 -5
-51 15 21 25 4 24 -27 -1 -16 -14 -58 -47 -94 -75 -36 -27 -71 -55 -79 -62 -7
-6 -50 -38 -95 -71 -93 -69 -102 -79 -162 -167 -24 -36 -81 -105 -128 -153
l-84 -87 -73 0 -73 0 -60 -63 c-97 -100 -264 -221 -396 -286 l-45 -22 33 29
c32 30 41 51 22 53 -5 1 -19 3 -30 4 -11 1 -38 3 -59 4 -31 1 -41 6 -46 22 -5
16 4 30 42 66 26 24 43 42 36 39 -6 -3 -51 -18 -100 -31 -86 -25 -279 -93
-338 -120 -87 -39 -458 -220 -505 -246 -257 -142 -439 -193 -599 -168 -48 7
-61 0 -94 -53 -14 -22 -14 -28 -2 -38 15 -13 103 -12 150 2 17 5 37 11 45 13
113 29 297 91 340 114 24 13 88 24 72 13 -11 -7 -8 -11 12 -16 14 -3 26 -10
26 -15 0 -14 -49 -58 -104 -95 -50 -33 -207 -116 -230 -121 -6 -1 -24 -8 -41
-15 -16 -7 -33 -14 -37 -15 -5 -2 -10 -4 -13 -5 -3 -1 -8 -3 -12 -5 -5 -1 -15
-4 -23 -8 -39 -16 -159 -49 -195 -53 -54 -8 -116 -7 -195 0 -314 28 -512 27
-661 -5 -28 -6 -58 -12 -67 -14 -9 -2 -17 -4 -17 -5 0 -1 -11 -3 -25 -5 -14
-2 -45 -8 -70 -14 -51 -11 -66 -7 -26 8 14 6 26 13 26 17 0 13 -175 -24 -250
-53 -8 -4 -18 -7 -22 -8 -5 -2 -10 -4 -13 -5 -3 -1 -8 -3 -12 -4 -13 -3 -147
-47 -163 -54 -8 -3 -19 -6 -25 -7 -5 -1 -30 -7 -54 -14 -23 -7 -49 -10 -56 -7
-7 2 -16 2 -20 -2 -3 -4 -37 -7 -75 -7 -57 -1 -75 -6 -107 -28 -22 -15 -44
-27 -51 -27 -7 0 -12 -4 -12 -8 0 -5 -6 -9 -12 -10 -15 -1 -53 -10 -53 -12 0
-1 -8 -3 -19 -5 -61 -12 -127 -28 -166 -42 -45 -16 -93 -59 -87 -78 5 -13 35
-14 67 -2 14 5 34 10 45 12 11 1 27 5 35 8 14 5 120 31 180 43 14 3 43 10 65
16 67 17 87 19 80 8 -3 -5 -12 -10 -18 -10 -7 0 -29 -9 -50 -20 -20 -11 -37
-18 -37 -16 0 3 -28 -8 -62 -24 -74 -33 -141 -62 -148 -65 -3 -1 -12 -5 -20
-8 -54 -22 -150 -55 -150 -51 0 2 -9 0 -21 -6 -19 -11 -33 -15 -84 -25 -11 -2
-40 -9 -65 -14 -54 -13 -144 -25 -182 -26 -16 0 -28 -2 -28 -5 0 -5 -10 -6
-155 -10 -102 -3 -105 -3 -75 15 40 23 81 39 93 37 4 -1 7 2 7 8 0 5 8 10 18
10 10 0 26 6 37 14 11 7 36 17 55 21 19 4 46 14 60 21 23 12 18 13 -50 9 -73
-4 -91 -7 -155 -22 -16 -3 -39 -7 -51 -8 -11 -1 -26 -5 -33 -9 -18 -11 -191
-17 -191 -7 0 36 95 80 205 96 11 2 20 4 20 5 0 1 11 3 90 14 22 3 60 8 85 11
25 4 59 8 75 10 17 2 30 4 30 5 0 1 16 3 35 5 19 1 49 5 65 8 17 3 50 9 75 12
25 4 52 9 60 11 151 35 237 57 250 64 9 5 28 11 41 14 13 2 44 14 69 25 l45
21 -65 -5 c-60 -4 -101 -10 -107 -15 -7 -6 -106 -24 -115 -22 -5 1 -8 -2 -8
-6 0 -5 -6 -9 -12 -9 -22 -1 -81 -14 -90 -19 -5 -3 -23 -7 -41 -10 -61 -7 -99
-14 -107 -19 -5 -3 -16 2 -25 11 -13 13 -13 19 -3 32 12 14 11 14 -9 1 -13 -8
-23 -17 -23 -20 0 -12 -132 -62 -200 -75 -30 -6 -126 -17 -170 -20 -25 -1 -45
-3 -45 -4 0 -1 -63 -3 -140 -6 -77 -2 -156 -6 -175 -8 -19 -3 -53 -7 -75 -10
-48 -6 -64 -10 -200 -50 -15 -4 -67 -26 -75 -31 -5 -3 -2 16 6 41 13 43 12 45
-4 39 -9 -4 -23 -8 -29 -8 -7 0 -13 -3 -13 -7 0 -4 -6 -7 -12 -7 -7 0 -41 -8
-75 -17 -34 -9 -88 -19 -120 -22 -32 -3 -64 -7 -72 -10 -11 -4 -11 -2 -1 11 7
8 16 13 20 10 5 -3 10 -2 12 2 4 11 87 53 104 53 8 0 14 5 14 10 0 6 9 10 20
10 11 0 20 4 20 9 0 6 -10 8 -22 5 -70 -14 -116 -17 -233 -17 -122 0 -227 7
-285 19 -14 3 -41 7 -60 8 -19 2 -52 7 -72 11 -25 5 -38 4 -38 -4 0 -6 6 -8
14 -5 8 3 25 -5 37 -17 14 -14 18 -24 11 -27 -17 -5 -26 -70 -12 -86 6 -8 25
-18 41 -21 37 -8 31 -17 -13 -21 -45 -4 -261 -16 -273 -15 -5 0 -44 2 -85 5
-41 2 -97 10 -125 16 -27 6 -58 13 -68 15 -9 2 -61 25 -115 51 -53 26 -99 48
-102 49 -3 1 -30 13 -60 27 -66 30 -180 67 -215 70 -14 1 -25 5 -25 8 0 3 -8
6 -17 6 -17 1 -74 10 -119 18 -11 2 -45 7 -75 10 -30 3 -64 8 -76 10 -13 3
-23 1 -23 -5 0 -5 9 -9 20 -9 58 0 204 -54 197 -73 -4 -14 -57 -28 -78 -22 -9
3 -34 8 -55 10 -22 2 -48 7 -59 10 -11 2 -54 13 -95 24 -41 10 -96 26 -122 34
-27 8 -48 13 -48 10 0 -3 -6 -1 -12 4 -7 6 -43 20 -80 33 -38 13 -68 27 -68
31 0 4 -8 8 -17 8 -10 0 -45 2 -77 6 -84 9 -199 13 -214 7 -18 -6 12 -32 66
-56 23 -11 42 -23 42 -28 0 -4 6 -8 14 -8 20 0 28 -27 10 -34 -29 -11 -63 -6
-99 14 -19 11 -37 20 -40 20 -3 0 -6 0 -7 1 -64 19 -227 16 -328 -7 -37 -8
-228 -12 -239 -5 -6 4 -7 21 -1 46 10 46 11 45 -26 50 -16 2 -29 4 -29 5 0 2
-24 8 -60 15 -16 3 -41 8 -55 11 -13 3 -38 7 -55 10 -16 2 -40 6 -52 9 -13 3
-33 7 -45 10 -45 10 -121 7 -143 -7 -70 -43 -85 -47 -157 -44 -66 3 -133 18
-258 59 -25 8 -40 16 -35 17 6 1 17 3 25 5 19 4 79 16 105 20 44 8 81 15 100
19 11 3 34 5 50 6 28 1 29 2 7 10 -12 5 -44 12 -70 15 -26 4 -60 10 -77 14
-16 4 -42 6 -57 6 -16 -1 -28 3 -28 8 0 4 -5 5 -10 2 -14 -9 -100 5 -100 16 0
5 8 13 18 16 9 4 31 20 47 35 l30 28 -45 1 c-48 2 -67 4 -115 12 -16 3 -50 9
-75 12 -40 6 -73 12 -160 31 -72 15 -220 58 -220 63 0 4 -9 7 -20 8 -15 1
-147 55 -251 101 -4 2 -6 -7 -5 -19 3 -53 -110 -83 -226 -59 -29 5 -66 12 -81
15 -112 18 -225 84 -212 124 5 17 -6 24 -77 51 -46 18 -94 37 -108 43 -14 6
-28 11 -32 11 -3 1 -10 4 -14 8 -6 7 28 10 101 10 101 1 198 -33 281 -96 26
-20 51 -33 56 -30 5 3 24 8 41 10 40 6 87 24 87 33 0 8 -155 83 -256 125 -49
20 -281 101 -446 156 -45 15 -32 2 22 -21 52 -22 94 -57 55 -46 -21 6 -60 14
-110 23 -16 3 -55 11 -85 19 -30 8 -66 16 -80 19 -42 7 -243 57 -270 66 -14 4
-53 14 -88 21 -101 21 -139 82 -48 79 22 -1 46 -1 51 -1 23 4 -62 31 -155 51
-104 22 -208 53 -249 75 -25 12 -24 13 30 44 30 17 61 31 69 32 8 1 33 3 55 5
22 1 42 3 45 3 3 1 -38 16 -90 35 -52 18 -165 59 -251 90 l-155 57 -87 87
c-92 92 -119 125 -115 140 8 29 -188 132 -431 226 -169 66 -175 69 -356 157
-131 64 -206 104 -230 122 -5 4 -35 23 -65 43 -30 20 -82 59 -115 85 -33 27
-67 49 -76 49 -8 0 -49 17 -90 38 -95 48 -311 226 -519 426 -52 51 -131 121
-175 156 -44 35 -82 67 -85 70 -4 5 -90 67 -230 167 -25 18 -81 55 -125 84
l-80 52 -85 160 c-69 130 -92 165 -126 189 -45 32 -81 31 -63 -3 5 -10 8 -19
5 -19 -2 0 1 -21 8 -47 6 -27 11 -54 10 -60 -1 -7 -2 -18 -3 -24 -1 -7 -11 -9
-28 -5 -38 9 -113 47 -113 58 0 4 -6 8 -12 8 -7 0 -30 15 -50 33 -20 17 -57
46 -81 64 -60 45 -175 160 -192 193 -12 24 -12 30 5 58 11 18 24 32 29 32 14
0 18 31 8 62 -6 20 -49 52 -170 129 -260 164 -387 267 -513 414 -79 92 -213
295 -195 295 27 0 235 -154 323 -240 57 -54 103 -98 105 -97 1 1 -34 65 -78
141 -43 77 -79 141 -79 143 0 8 133 -88 205 -149 102 -86 222 -178 232 -178
19 0 16 30 -9 91 -25 60 -35 71 -57 59 -25 -14 -112 25 -189 84 -8 6 -57 52
-110 101 -81 77 -155 162 -306 349 -46 58 -212 242 -281 312 -72 72 -135 108
-187 105 -36 -2 -41 3 -53 49 -2 7 -15 37 -41 98 -27 61 -18 68 19 15 31 -44
33 -41 11 13 -35 83 -121 185 -183 216 -118 59 -193 109 -255 172 -39 39 -78
82 -86 95 -8 13 -23 33 -32 45 -29 39 -105 199 -127 266 -29 93 -30 106 -7
102 14 -3 16 0 7 10 -7 7 -33 42 -59 78 -25 36 -49 67 -52 70 -23 22 -137 180
-151 210 -18 37 -17 76 2 64 17 -10 9 6 -75 150 -79 133 -183 327 -199 369 -5
15 -4 16 12 7 16 -8 18 -7 14 8 -2 10 -13 19 -24 19 -22 2 -54 32 -154 149
-108 124 -110 127 -134 177 -26 53 -20 76 9 37 10 -14 25 -34 33 -45 9 -11 18
-17 22 -13 6 6 -33 71 -125 208 -72 106 -97 178 -70 195 18 11 64 -25 107 -83
42 -58 128 -203 159 -267 9 -19 19 -35 23 -35 10 0 16 62 15 150 0 84 -15 117
-126 282 -107 161 -177 333 -213 523 -9 50 -19 96 -21 104 -4 11 -2 12 11 1 8
-7 15 -20 15 -29 0 -9 5 -22 12 -29 7 -7 9 -12 6 -12 -4 0 9 -28 28 -62 18
-35 48 -91 66 -125 18 -35 35 -63 39 -63 16 0 20 154 5 240 -8 50 -17 97 -37
195 -25 117 -21 99 -53 245 -23 105 -38 196 -39 227 0 7 -3 11 -5 8 -3 -3 -6
-94 -7 -202 -2 -109 -6 -222 -9 -252 -8 -63 -30 -111 -51 -111 -36 0 -80 76
-100 175 -9 44 -22 94 -30 110 -7 17 -17 44 -21 60 -4 17 -31 77 -60 134 -49
95 -57 131 -32 131 11 0 6 126 -7 170 -4 14 -8 32 -10 40 -1 8 -5 23 -9 32 -4
9 -9 22 -10 30 -1 7 -15 54 -30 103 -15 50 -30 97 -32 107 -4 13 1 16 21 14
14 -2 27 0 30 4 2 4 17 6 33 5 24 -1 28 2 24 17 -2 10 -8 18 -13 18 -5 0 -9 5
-9 11 0 6 -6 16 -12 23 -7 7 -24 28 -38 47 -14 18 -76 85 -137 147 -62 63
-113 121 -113 128 0 8 -4 14 -9 14 -6 0 -10 8 -10 18 0 9 -4 42 -9 72 -10 59
-8 216 3 265 6 31 64 146 77 156 8 5 5 44 -8 124 -13 83 -30 80 -58 -10 -10
-33 -25 -68 -34 -78 -14 -16 -16 -16 -34 -1 -10 10 -18 25 -18 35 0 10 -4 20
-9 23 -7 5 -25 70 -21 78 1 2 -4 16 -10 33 -10 28 -17 74 -25 175 -4 51 -11
96 -26 160 -5 25 -12 61 -14 80 -4 36 -8 58 -25 165 -14 83 -18 106 -25 135
-7 31 -13 58 -19 88 -3 12 -7 26 -10 30 -3 5 -8 24 -11 43 -3 19 -10 50 -15
69 -5 19 -11 46 -14 60 -3 14 -15 68 -27 120 -11 52 -23 109 -25 125 -3 17 -8
41 -11 55 -6 27 -5 106 2 141 8 43 22 39 49 -12 19 -34 32 -47 38 -41 7 7 -9
55 -48 144 -56 128 -72 187 -53 189 5 1 14 2 19 3 14 1 14 5 1 53 -10 37 -53
93 -72 93 -22 0 -61 108 -73 200 -3 19 -12 49 -21 67 -24 49 -22 167 5 318 13
67 19 103 26 145 3 19 8 38 11 43 2 4 6 20 9 35 2 15 9 50 15 77 13 65 23 133
24 168 0 15 2 27 5 27 8 0 4 299 -4 330 -14 57 -15 78 -2 95 13 18 15 17 51
-18 21 -20 42 -37 47 -37 7 0 6 37 -8 195 -3 28 -6 70 -8 95 -2 25 -6 72 -10
105 -3 33 -8 92 -12 130 -3 39 -7 84 -9 100 -2 17 -7 57 -9 90 -3 33 -8 80
-11 105 -2 25 -7 72 -10 105 -3 33 -9 78 -12 100 -9 66 -9 80 -2 90 11 17 98
277 104 314 3 19 10 42 15 52 20 36 9 32 -20 -8 -48 -65 -75 -67 -102 -5 -8
20 -19 57 -23 82 -4 25 -9 54 -11 65 -11 57 -36 310 -37 373 -1 23 -4 42 -7
42 -3 0 -21 -26 -40 -57 -19 -32 -37 -60 -40 -63 -3 -3 -18 -31 -33 -62 -15
-32 -29 -58 -32 -58 -2 0 -2 26 0 58 3 31 7 113 9 182 6 165 15 244 33 305 8
28 17 56 19 63 2 6 10 12 17 12 19 0 32 -17 46 -62 19 -57 26 -52 26 17 0 56
4 68 31 101 16 21 35 39 41 41 27 9 62 -56 78 -145 2 -12 6 -26 9 -31 3 -5
-11 -36 -32 -70 -20 -34 -47 -78 -58 -99 -24 -40 -44 -53 -40 -25 2 10 -5 41
-15 70 -9 28 -14 55 -11 59 4 4 2 5 -3 1 -6 -3 -9 -23 -7 -44 5 -60 10 -136
11 -163 l2 -25 17 28 c18 29 32 35 33 15 1 -23 7 -42 23 -79 8 -20 12 -39 9
-43 -4 -3 -2 -6 4 -6 6 0 13 -10 17 -23 9 -37 66 -97 91 -97 22 0 22 3 21 95
-1 79 1 92 11 78 7 -9 13 -20 13 -25 0 -4 7 -8 15 -8 16 0 16 28 0 144 l-6 41
58 33 c32 18 69 41 82 51 l24 18 -23 23 -22 22 22 57 c12 31 24 67 26 81 3 13
9 29 13 35 5 5 14 28 21 50 7 22 20 56 28 75 9 19 16 38 16 42 1 3 4 10 8 14
5 4 8 13 8 19 0 7 8 30 17 51 9 22 17 41 18 44 3 11 18 47 31 77 8 17 14 34
14 37 0 4 7 23 17 44 9 20 17 39 18 42 1 3 4 12 8 20 3 8 8 161 11 340 5 313
7 360 20 481 4 30 9 79 12 109 2 30 7 70 9 90 3 19 8 58 10 86 3 28 8 62 11
75 2 13 7 40 10 59 3 19 7 43 10 52 3 10 7 28 10 40 4 25 8 40 25 108 6 25 12
52 14 60 2 8 4 15 5 15 1 0 3 7 5 15 1 8 8 35 15 60 7 25 14 53 15 63 9 42 89
286 93 282 3 -3 6 -15 6 -27 2 -39 27 -87 50 -95 11 -4 53 -7 91 -8 92 -1 104
-9 72 -44 -75 -80 -136 -245 -211 -571 -15 -63 -45 -177 -67 -253 -21 -76 -39
-141 -39 -145 0 -4 14 15 31 41 20 32 36 47 47 45 9 -2 17 -8 17 -15 0 -6 3
-14 7 -18 8 -8 14 12 33 115 3 14 7 39 10 55 11 58 37 170 42 185 8 18 7 16
18 65 4 22 10 45 11 50 2 6 6 23 9 40 5 24 28 126 50 223 4 17 12 22 38 22 39
0 62 26 136 160 30 52 62 106 71 120 18 26 18 26 -8 28 -43 3 -55 28 -48 99 7
69 58 224 110 336 110 236 169 368 190 434 15 46 20 52 36 43 55 -29 26 -168
-77 -370 l-43 -85 44 50 c87 98 126 209 140 400 12 162 31 244 71 325 28 56
84 126 97 122 5 -1 7 2 3 8 -3 5 -1 10 4 10 6 0 11 5 11 12 0 9 24 53 103 183
7 11 14 22 17 25 3 3 24 30 47 60 61 81 112 128 122 112 7 -11 34 22 86 106 6
9 15 21 20 27 6 7 35 51 65 99 30 48 78 124 107 169 28 45 56 87 61 93 9 10
234 344 252 374 5 8 48 73 95 144 47 71 85 133 85 138 0 4 5 8 10 8 6 0 10 4
10 10 0 5 20 40 44 78 95 146 181 326 195 407 l7 40 43 -105 c24 -58 47 -108
51 -113 3 -4 21 52 39 125 17 73 34 140 36 148 3 15 67 234 132 455 19 66 46
152 60 190 67 185 93 261 93 276 0 10 14 2 43 -25 24 -23 79 -59 122 -80 169
-85 203 -162 140 -317 -14 -34 -31 -70 -38 -78 -33 -39 -28 -43 13 -11 73 57
225 213 350 360 12 14 30 35 40 47 17 20 13 43 -4 26 -16 -17 -115 -23 -164
-11 -45 11 -63 31 -57 64 2 10 4 22 4 25 1 5 54 31 71 35 3 0 22 8 42 18 21 9
40 15 42 14 2 -2 13 6 25 16 12 11 21 16 21 12 0 -6 83 36 160 82 19 12 73 42
120 69 47 26 103 58 125 71 22 12 48 25 58 29 9 3 17 10 17 15 0 5 -4 7 -9 4
-13 -8 -41 28 -47 60 -3 15 -7 31 -10 36 -3 4 -2 8 3 8 4 0 9 16 10 35 1 19
14 60 29 90 33 65 104 146 111 127 3 -7 27 -38 54 -70 27 -31 53 -70 57 -85 7
-28 7 -28 36 25 16 29 34 63 40 75 6 13 14 23 19 23 4 0 7 6 7 13 0 7 7 22 15
32 21 27 112 167 154 237 33 54 35 56 45 35 21 -42 72 -59 164 -54 70 3 85 7
97 24 21 30 169 146 310 243 178 123 287 213 207 171 -23 -13 -216 -92 -211
-87 2 2 38 28 79 58 89 64 126 96 189 162 25 27 56 59 69 72 12 13 22 27 22
32 0 4 8 17 18 28 9 10 29 37 43 59 14 22 37 57 50 77 13 21 28 38 32 38 5 0
6 4 3 8 -3 5 2 18 12 28 9 10 23 31 31 47 8 15 18 27 23 27 4 0 8 5 8 11 0 41
285 300 392 355 27 14 28 14 18 -11 -24 -62 1 -161 46 -185 13 -7 24 -17 24
-20 0 -11 126 -3 149 9 11 6 24 10 28 9 27 -8 58 34 115 150 53 110 92 182
182 335 31 54 155 225 218 300 96 117 237 254 333 327 117 87 120 89 190 86
71 -2 69 -3 213 91 62 40 136 87 165 103 29 17 63 38 77 47 l25 17 -25 -29
c-14 -16 -34 -38 -45 -50 -11 -12 -40 -46 -65 -75 -46 -54 -87 -100 -150 -169
-19 -21 -49 -56 -66 -77 -18 -22 -42 -51 -55 -65 -13 -14 -39 -43 -58 -65 -36
-41 -192 -213 -251 -275 -19 -20 -69 -74 -110 -120 -117 -129 -210 -228 -268
-286 -57 -56 -57 -58 -2 -43 19 5 58 11 85 14 28 2 50 5 50 6 0 1 10 3 22 6
23 4 199 88 218 104 12 10 55 2 55 -10 0 -21 -182 -160 -210 -160 -6 0 -9 -4
-5 -10 6 -10 55 7 67 25 4 5 8 7 8 3 0 -4 35 9 78 28 42 20 102 47 132 61 114
52 360 153 414 170 43 14 56 22 52 35 -9 39 155 182 352 306 110 69 172 122
172 147 0 14 -6 13 -42 -7 -108 -58 -291 -165 -373 -217 -49 -32 -130 -84
-180 -116 -49 -31 -102 -65 -116 -75 -14 -10 -55 -36 -91 -58 l-66 -41 -5 25
c-4 25 32 114 58 140 8 9 15 19 15 23 0 15 165 179 245 243 111 90 180 136
329 217 135 74 249 123 334 145 43 12 54 12 71 -1 30 -20 27 -59 -14 -167 -19
-52 -35 -102 -35 -112 0 -16 2 -16 23 3 33 31 182 117 280 163 86 40 297 114
305 106 4 -5 -28 -26 -148 -100 -41 -25 -69 -46 -63 -46 62 0 278 103 385 183
45 33 177 99 263 129 76 28 102 32 310 53 33 4 69 8 80 9 11 1 26 -2 33 -7 8
-6 12 -5 12 2 0 7 4 10 9 6 15 -8 268 -18 296 -11 38 10 29 29 -24 53 -84 40
-203 176 -240 275 -7 18 -17 42 -21 53 -27 62 -40 175 -27 225 11 41 30 80 40
81 7 1 30 3 52 5 22 2 102 5 177 6 76 2 138 7 138 11 0 4 8 3 19 -2 10 -6 21
-7 25 -4 8 8 279 7 376 -1 212 -19 252 -27 283 -54 39 -34 22 -68 -98 -197
-90 -96 -114 -137 -92 -155 79 -64 74 -62 142 -58 78 6 96 16 28 16 -76 0 -97
2 -112 11 -24 15 9 43 122 100 50 25 63 28 88 19 16 -5 29 -16 29 -22 0 -7 8
-20 18 -29 16 -14 60 -15 137 -3 11 2 25 4 31 5 6 0 25 14 43 30 45 40 118 60
286 76 17 1 36 3 44 4 49 4 -55 24 -136 25 -52 1 -47 10 14 26 70 18 124 23
250 24 62 1 113 5 113 9 0 5 4 6 8 3 15 -9 104 -7 279 6 8 1 9 7 4 16 -11 20
-2 52 23 78 32 32 97 78 141 99 22 11 42 22 45 25 11 11 121 60 135 60 8 0 15
5 15 10 0 6 3 9 8 8 4 0 14 1 22 4 25 10 183 56 215 63 72 16 93 16 98 -4 2
-11 22 -30 44 -44 39 -25 41 -25 284 -25 134 0 269 -3 299 -6 30 -3 98 -8 150
-11 52 -3 111 -8 130 -10 35 -5 130 -12 265 -20 39 -2 95 -7 125 -10 30 -3 80
-8 110 -11 30 -3 69 -7 85 -9 17 -2 66 -7 110 -11 154 -13 183 -18 273 -50 42
-15 88 -33 102 -41 14 -7 30 -13 37 -13 6 0 19 -10 27 -22 12 -17 13 -24 3
-30 -7 -5 3 -6 23 -3 91 15 133 19 230 19 98 1 108 -1 154 -28 52 -30 49 -46
-8 -40 -83 10 -243 10 -260 2 -17 -9 -16 -12 9 -38 26 -27 28 -28 62 -13 20 8
56 17 82 21 54 7 400 6 584 -2 70 -3 127 -3 127 -1 0 15 -85 57 -150 74 -148
39 -216 45 -512 45 -142 -1 -258 3 -258 7 0 5 13 24 30 42 62 71 230 132 450
162 25 3 59 9 75 11 106 19 446 19 665 0 113 -10 143 -15 206 -30 119 -29 170
-70 127 -101 -15 -11 -16 -14 -3 -19 22 -8 321 -69 402 -82 78 -12 97 -15 138
-19 25 -2 68 -7 95 -11 28 -3 142 -7 255 -8 113 -1 211 -6 218 -10 7 -4 12 -2
12 4 0 6 5 8 10 5 11 -7 35 -12 95 -19 22 -2 47 -7 55 -10 8 -3 26 -7 40 -10
40 -7 161 -46 210 -68 177 -78 208 -95 258 -144 73 -72 68 -117 -18 -165 -39
-22 -57 -49 -45 -69 6 -10 -27 -8 -75 5 -14 4 -33 8 -42 8 -10 1 -18 4 -18 7
0 4 -24 12 -52 20 -29 7 -60 16 -68 21 -8 4 -35 16 -60 27 -25 11 -106 49
-180 85 -142 68 -302 139 -322 141 -3 1 -10 4 -14 9 -11 10 -24 9 -24 -3 0 -5
3 -9 8 -8 4 1 29 -8 56 -20 27 -12 50 -22 52 -22 2 0 33 -13 69 -30 36 -16 70
-30 75 -30 6 0 10 -5 10 -11 0 -5 -4 -8 -8 -5 -5 3 -35 7 -68 10 -32 3 -70 8
-84 11 -13 2 -42 7 -65 11 -59 9 -59 9 -70 15 -9 6 -70 19 -92 20 -5 1 -17 6
-28 12 -26 14 -55 19 -55 9 0 -4 19 -13 43 -20 23 -7 67 -22 97 -34 87 -33 91
-34 170 -57 41 -12 82 -25 90 -28 8 -3 20 -7 25 -9 89 -23 263 -76 295 -91 8
-3 17 -7 20 -8 12 -4 50 -18 105 -40 33 -13 85 -31 115 -42 30 -10 57 -21 58
-26 2 -4 7 -5 11 -2 16 9 349 -110 486 -175 78 -37 150 -70 210 -95 124 -53
332 -156 445 -220 70 -40 188 -71 303 -82 67 -6 69 -5 65 17 -2 19 -24 31
-123 71 -115 47 -170 84 -145 99 18 11 131 -1 195 -20 78 -23 135 -9 80 20
-14 7 -23 15 -21 17 1 2 59 -13 127 -32 368 -105 663 -227 860 -356 98 -65
107 -78 111 -166 2 -50 7 -62 33 -85 16 -15 34 -28 38 -28 4 0 17 -9 29 -20
11 -10 35 -26 52 -35 17 -9 51 -29 76 -45 25 -16 65 -38 90 -50 49 -23 130
-36 130 -21 0 6 -50 60 -111 121 -62 60 -108 110 -103 110 14 0 83 -26 90 -33
4 -4 15 -7 24 -7 9 0 35 -9 58 -20 22 -11 45 -20 50 -20 5 0 70 -25 143 -56
74 -30 154 -63 179 -73 53 -21 243 -112 250 -120 3 -3 19 -13 35 -21 17 -8 32
-17 35 -20 3 -3 25 -18 49 -34 25 -16 50 -33 55 -38 76 -62 127 -89 95 -50 -8
9 -21 29 -29 45 -7 15 -30 39 -49 54 -46 34 -101 88 -101 100 -1 13 -60 79
-60 66 0 -25 -33 -20 -107 16 -43 21 -85 45 -93 52 -8 8 -26 20 -40 27 -27 13
-62 34 -70 42 -10 10 -69 50 -74 50 -3 0 -44 25 -90 56 -99 64 -217 125 -228
118 -4 -3 -8 -12 -8 -21 0 -8 -16 4 -36 29 -54 65 -103 106 -289 247 -184 138
-235 179 -307 247 -26 24 -48 44 -51 44 -2 0 -2 -13 1 -30 l4 -30 -41 15 c-23
8 -80 35 -127 61 -47 25 -88 44 -91 41 -3 -4 -17 0 -32 7 -14 7 -37 17 -50 21
-21 6 -22 5 -10 -8 8 -8 16 -14 19 -14 11 3 140 -138 129 -142 -21 -7 -120 20
-259 69 -417 148 -510 180 -560 195 -30 9 -72 24 -92 32 -45 19 -51 45 -10 42
53 -4 64 -1 53 19 -6 12 -32 23 -78 32 -37 8 -75 15 -83 17 -8 2 -46 6 -83 10
-59 5 -70 9 -77 29 -5 12 -28 41 -52 64 -24 23 -64 62 -90 88 -27 25 -48 52
-48 59 0 16 72 18 102 2 14 -8 23 -8 31 0 8 8 7 11 -4 11 -7 0 -27 7 -42 15
-15 8 -25 10 -22 5 3 -5 -12 0 -32 10 -53 26 -78 36 -157 65 -38 14 -117 50
-175 80 -157 79 -277 130 -431 181 -25 8 -52 18 -60 21 -8 3 -21 5 -27 4 -7
-1 -13 2 -13 8 0 5 -8 8 -17 6 -10 -1 -26 2 -35 6 -10 5 -30 11 -45 14 -69 10
-101 17 -143 30 -25 8 -63 17 -85 20 -22 3 -46 8 -53 10 -12 4 -135 17 -169
18 -7 0 -13 4 -13 8 0 8 -104 33 -132 32 -10 0 -18 4 -18 9 0 5 -3 7 -8 4 -4
-2 -43 4 -87 15 -105 26 -87 23 -272 54 -134 23 -163 31 -163 45 0 9 -6 17
-12 18 -7 1 -33 6 -58 12 -51 12 -177 37 -230 45 -20 3 -45 7 -56 9 -12 2 -45
7 -75 11 -30 3 -65 8 -79 11 -14 2 -45 6 -70 9 -25 2 -65 7 -90 10 -48 6 -85
11 -165 20 -27 4 -63 9 -80 11 -16 3 -43 7 -60 9 -16 2 -46 6 -65 9 -19 3 -57
8 -85 11 -146 14 -173 18 -210 30 -90 29 -373 90 -381 82 -3 -3 17 -13 45 -22
82 -27 59 -33 -51 -13 -57 10 -114 20 -128 23 -14 2 -41 7 -60 10 -19 3 -57
12 -85 19 -49 14 -47 14 60 9 60 -2 114 -7 119 -10 5 -4 6 -1 3 5 -4 5 -40 16
-80 22 -39 7 -81 15 -92 17 -11 3 -249 7 -530 8 -280 2 -527 6 -549 9 -26 3
-50 16 -75 39 l-36 35 -285 7 c-599 15 -687 12 -737 -21 -20 -13 -27 -12 -60
1 -64 27 -201 42 -378 42 -93 -1 -181 -3 -195 -4z m-12417 -11563 c-2 -14 -11
-47 -20 -75 -10 -27 -18 -52 -18 -55 -2 -10 -64 -125 -65 -119 0 4 7 25 15 48
8 22 12 41 8 41 -3 0 0 7 7 15 7 8 9 15 6 15 -4 0 -4 6 1 13 4 6 8 14 8 17 0
3 12 40 25 83 17 52 27 72 31 60 4 -10 5 -29 2 -43z m638 -8318 c68 -120 97
-198 82 -213 -16 -16 -88 47 -111 98 -21 46 -55 233 -43 233 3 0 36 -53 72
-118z m26224 -925 c5 -19 -5 -36 -50 -83 -31 -32 -69 -83 -86 -111 -33 -57
-61 -84 -35 -34 9 17 17 34 18 38 2 13 80 156 100 186 24 33 46 35 53 4z
m-10350 -8217 c-3 -5 -12 -10 -18 -10 -7 0 -6 4 3 10 19 12 23 12 15 0z m955
-484 c0 -3 -10 -15 -22 -28 -21 -21 -58 -27 -103 -18 -7 1 75 34 123 49 1 1 2
-1 2 -3z"/>
<path d="M19254 31249 c-6 -10 44 -44 53 -36 3 4 15 1 27 -5 11 -6 34 -13 51
-15 53 -6 216 -9 246 -5 33 5 35 23 3 28 -35 6 -138 17 -174 19 -19 2 -35 3
-35 4 0 10 -165 19 -171 10z"/>
<path d="M13785 31168 c-4 -29 -9 -67 -11 -83 -1 -17 -4 -37 -6 -45 -2 -11 6
-15 35 -14 21 1 40 4 43 7 6 5 -41 175 -50 184 -2 2 -7 -20 -11 -49z"/>
<path d="M20777 30979 c7 -7 15 -10 18 -7 3 3 -2 9 -12 12 -14 6 -15 5 -6 -5z"/>
<path d="M20553 30948 c11 -10 27 -18 36 -17 10 0 7 4 -8 10 -14 5 -30 13 -36
17 -6 4 -2 -1 8 -10z"/>
<path d="M19636 30923 c-5 -5 -72 -10 -198 -14 -37 -1 -73 -6 -80 -10 -10 -7
-10 -9 0 -10 15 -2 31 -6 35 -8 1 -2 13 -4 27 -7 14 -2 36 -7 50 -10 36 -10
90 -11 133 -3 20 3 37 2 37 -3 0 -5 10 -3 23 3 12 7 22 12 22 11 0 0 12 -5 28
-11 16 -6 27 -7 27 -1 0 5 6 7 14 4 23 -9 28 14 6 26 -11 6 -20 8 -20 5 0 -3
-10 -1 -21 6 -30 16 -76 28 -83 22z"/>
<path d="M20597 30778 c-22 -48 -30 -78 -20 -79 4 0 46 -2 92 -5 l85 -5 -38
26 c-21 14 -53 41 -71 61 l-33 34 -15 -32z"/>
<path d="M22652 30707 c5 -13 132 -80 164 -86 10 -1 28 -8 39 -14 33 -18 49
-17 85 5 19 12 46 21 60 19 l25 -2 -25 20 c-14 11 -33 21 -42 21 -9 0 -20 5
-23 10 -4 6 -12 10 -18 8 -7 -1 -37 4 -67 11 -81 19 -202 24 -198 8z"/>
<path d="M23220 30515 c0 -9 102 -56 113 -52 7 2 -1 10 -18 17 -16 7 -45 18
-62 26 -18 7 -33 12 -33 9z"/>
<path d="M23405 29919 c48 -32 92 -60 203 -129 29 -18 63 -34 75 -36 12 -1 38
-6 57 -10 24 -4 3 10 -65 46 -55 29 -104 56 -110 60 -5 4 -44 25 -85 47 -97
52 -141 65 -75 22z"/>
<path d="M23796 29822 c-2 -4 11 -6 30 -4 19 2 34 6 34 8 0 8 -59 4 -64 -4z"/>
<path d="M24612 29788 c29 -23 60 -50 69 -60 21 -23 29 -23 29 2 0 11 5 20 12
20 7 0 8 3 3 8 -11 9 -151 72 -161 72 -3 0 18 -19 48 -42z"/>
<path d="M24030 29756 c0 -2 8 -10 18 -17 15 -13 16 -12 3 4 -13 16 -21 21
-21 13z"/>
<path d="M24090 29709 c50 -47 131 -111 135 -107 7 7 -51 58 -110 97 -34 23
-42 26 -25 10z"/>
<path d="M23828 29700 c45 -28 170 -90 179 -90 21 1 -183 110 -205 110 -4 0 8
-9 26 -20z"/>
<path d="M24325 29315 c47 -41 85 -67 85 -58 0 9 -38 39 -84 66 l-31 19 30
-27z"/>
<path d="M24860 29269 c0 -24 75 -99 124 -124 35 -18 53 -28 113 -68 24 -15
43 -25 43 -22 0 4 12 -3 26 -14 15 -12 32 -21 38 -21 6 0 5 4 -3 9 -11 7 -10
11 7 20 46 25 -11 85 -150 158 -45 24 -85 43 -90 43 -5 0 -28 9 -50 20 -52 25
-58 25 -58 -1z"/>
<path d="M10348 29273 c7 -3 16 -2 19 1 4 3 -2 6 -13 5 -11 0 -14 -3 -6 -6z"/>
<path d="M24720 29112 c-5 -2 13 -22 42 -45 28 -23 64 -52 80 -65 l28 -23 -5
62 c-3 35 -8 65 -11 68 -5 6 -118 8 -134 3z"/>
<path d="M25730 29034 c0 -10 103 -114 112 -114 9 0 51 40 46 44 -15 12 -110
57 -128 60 -3 1 -11 5 -17 9 -7 5 -13 5 -13 1z"/>
<path d="M9595 28950 c-64 -25 -80 -31 -82 -31 -2 0 -19 -8 -38 -19 -19 -11
-54 -23 -77 -27 -23 -3 -52 -16 -63 -27 -12 -12 -43 -38 -69 -60 -81 -66 -137
-126 -134 -144 2 -9 20 -23 40 -30 35 -14 40 -13 104 19 86 43 154 108 154
146 0 40 35 75 115 118 39 21 74 41 78 45 13 12 -6 19 -28 10z"/>
<path d="M25350 28933 c0 -5 17 -17 38 -28 20 -11 43 -26 50 -32 18 -17 33
-16 26 1 -5 12 -39 33 -106 64 -5 2 -8 0 -8 -5z"/>
<path d="M25424 28592 c-6 -4 -13 -14 -16 -23 -5 -13 21 -30 120 -80 70 -34
129 -65 132 -69 3 -3 22 -16 43 -29 35 -21 52 -46 25 -36 -31 11 -68 13 -73 4
-11 -17 20 -44 50 -43 119 3 417 -199 541 -367 38 -52 86 -79 151 -87 74 -8
113 34 119 128 2 25 4 47 5 50 2 6 2 6 -5 60 -10 71 -28 144 -39 158 -5 6 -7
12 -3 12 3 0 -1 17 -10 38 -9 20 -17 42 -18 49 -1 7 -6 16 -10 20 -4 4 -6 1
-4 -7 9 -39 -107 -1 -264 87 -32 17 -58 29 -58 26 0 -6 57 -77 83 -105 19 -21
129 -151 162 -193 53 -66 85 -124 74 -131 -16 -10 -59 5 -98 34 -20 15 -40 30
-46 34 -5 4 -51 41 -101 81 -98 80 -133 121 -183 210 -30 53 -51 72 -51 46 0
-20 -64 -5 -170 39 -210 87 -323 117 -356 94z"/>
<path d="M26225 28567 c11 -8 56 -33 100 -57 60 -32 90 -42 119 -41 44 2 88
20 51 21 -12 0 -25 4 -30 9 -11 9 -183 66 -202 66 -6 0 -15 4 -19 8 -4 4 -14
7 -23 7 -12 0 -11 -3 4 -13z"/>
<path d="M26482 28338 c13 -13 58 -52 99 -88 40 -36 79 -69 85 -75 6 -5 48
-44 94 -85 46 -41 120 -110 164 -152 45 -43 85 -78 89 -78 4 0 -14 29 -40 64
-26 35 -56 74 -65 87 -132 189 -168 232 -209 254 -143 75 -188 95 -214 95
l-28 0 25 -22z"/>
<path d="M27080 27796 c0 -6 23 -29 139 -136 51 -47 128 -120 172 -163 43 -42
79 -74 79 -69 0 4 -5 13 -12 20 -6 6 -9 14 -6 17 7 7 98 -74 98 -88 0 -8 -4
-7 -12 1 -7 7 -20 12 -30 12 -10 0 -18 3 -18 8 0 4 -11 8 -24 8 -13 1 -65 20
-116 43 -51 23 -110 44 -131 47 -34 6 -40 4 -48 -17 -6 -17 -4 -33 7 -54 17
-35 18 -35 107 -109 98 -81 96 -79 140 -100 22 -10 53 -24 69 -32 16 -8 34
-14 39 -14 6 0 25 -11 44 -26 52 -40 39 -19 -34 54 -38 37 -74 75 -81 84 -12
15 -11 16 17 5 17 -6 31 -15 31 -19 0 -4 8 -8 18 -8 10 0 23 -5 29 -11 6 -6
16 -8 22 -5 12 8 -6 49 -47 106 -14 19 26 -17 88 -80 70 -71 100 -97 79 -68
-83 114 -135 182 -152 200 -10 10 -15 23 -12 28 13 22 -112 216 -129 200 -4
-4 48 -88 71 -115 23 -27 55 -77 51 -80 -4 -4 -23 11 -118 94 -46 40 -123 104
-188 156 -7 5 -21 17 -31 25 -46 41 -111 91 -111 86z"/>
<path d="M26651 27598 c18 -34 39 -59 89 -104 56 -52 85 -62 93 -35 5 22 -50
76 -134 133 -51 34 -64 35 -48 6z"/>
<path d="M27811 27266 c14 -11 110 -76 144 -95 l40 -23 -30 25 c-16 15 -35 26
-41 27 -7 0 -14 7 -18 15 -3 8 -11 15 -18 15 -7 0 -24 9 -38 20 -14 11 -29 20
-34 20 -5 0 -7 -2 -5 -4z"/>
<path d="M28111 27064 c31 -32 79 -88 108 -124 28 -36 56 -70 61 -77 5 -6 41
-60 80 -120 38 -59 75 -114 81 -121 14 -17 55 -11 51 7 -19 88 -19 126 -2 123
17 -3 -74 86 -170 168 -36 30 -67 57 -70 60 -3 3 -36 29 -75 57 -38 29 -74 56
-80 61 -39 31 -31 16 16 -34z"/>
<path d="M27810 27085 c14 -16 27 -32 31 -35 3 -3 32 -39 64 -80 33 -41 62
-77 66 -80 3 -3 25 -30 48 -60 79 -103 96 -124 109 -136 6 -7 12 -16 12 -21 0
-28 223 -253 237 -240 2 3 -28 39 -69 80 -40 41 -91 94 -113 119 l-41 44 34
-4 c32 -4 34 -3 27 19 -11 35 -59 92 -118 141 -79 65 -104 87 -182 163 -40 39
-86 81 -101 95 l-29 25 25 -30z"/>
<path d="M6196 26369 c8 -241 10 -278 16 -284 3 -3 9 11 13 32 10 53 68 176
107 226 31 40 105 113 145 143 15 11 15 14 3 14 -8 1 -24 3 -35 5 -11 2 -42 6
-70 9 -27 2 -80 7 -117 11 l-67 7 5 -163z"/>
<path d="M27978 26495 c7 -11 34 -69 62 -128 50 -108 50 -109 68 -87 l18 22
28 -40 c15 -23 52 -64 81 -92 45 -41 60 -50 90 -50 l37 0 -47 53 c-68 75 -350
346 -337 322z"/>
<path d="M28410 26394 c31 -40 190 -197 190 -187 0 5 -9 18 -19 27 -13 12 -18
26 -15 44 3 15 2 23 -2 20 -4 -4 -22 5 -40 21 -50 44 -131 98 -114 75z"/>
<path d="M28927 25999 c7 -7 15 -10 18 -7 3 3 -2 9 -12 12 -14 6 -15 5 -6 -5z"/>
<path d="M29064 25673 c2 -16 4 -45 5 -65 0 -20 8 -44 17 -52 8 -9 13 -16 9
-16 -3 0 2 -13 11 -29 10 -17 21 -28 25 -25 9 5 2 64 -14 104 -3 8 -13 36 -23
63 -18 52 -35 63 -30 20z"/>
<path d="M29087 25335 c21 -24 45 -43 53 -43 9 0 10 1 3 4 -7 3 -21 20 -33 39
-11 18 -29 35 -41 38 -16 4 -12 -4 18 -38z"/>
<path d="M29190 25215 c6 -11 18 -32 28 -47 34 -52 72 -121 72 -129 0 -5 5 -9
10 -9 6 0 10 -5 10 -10 0 -6 7 -22 16 -36 l17 -25 17 26 c9 14 20 22 23 18 4
-3 7 -2 7 3 0 5 -48 59 -106 119 -58 61 -100 101 -94 90z"/>
<path d="M29119 25123 c0 -5 -2 -19 -5 -31 -9 -50 -10 -136 -2 -190 5 -32 11
-73 14 -92 2 -18 6 -34 7 -35 1 0 24 -18 51 -40 55 -43 126 -146 126 -181 0
-22 -1 -22 -27 -9 -16 8 -29 11 -31 6 -4 -11 80 -90 114 -109 31 -16 32 -2 5
68 -11 27 -17 50 -15 50 3 0 -5 10 -17 23 -24 25 -99 179 -115 237 -2 8 -18
56 -35 105 -17 50 -32 97 -34 105 -14 70 -33 118 -36 93z"/>
<path d="M29492 24911 c70 -112 132 -181 157 -174 15 4 33 -13 78 -70 32 -42
63 -78 69 -80 7 -3 -13 51 -42 119 -30 69 -57 144 -61 167 -8 54 -19 26 -22
-58 -2 -62 -7 -77 -19 -58 -4 6 -38 46 -77 89 -142 158 -140 156 -83 65z"/>
<path d="M29210 24552 c6 -13 14 -21 18 -18 3 4 -2 14 -12 24 -18 16 -18 16
-6 -6z"/>
<path d="M29534 24479 c-9 -16 15 -123 37 -158 21 -35 48 -40 73 -12 15 16 23
18 46 9 16 -5 34 -16 41 -24 6 -8 16 -14 21 -14 5 0 -10 21 -34 47 -123 136
-170 174 -184 152z"/>
<path d="M4445 23859 c-4 -6 -5 -12 -2 -15 2 -3 7 2 10 11 7 17 1 20 -8 4z"/>
<path d="M30339 23423 c23 -35 41 -50 41 -35 0 4 -14 21 -32 38 l-31 29 22
-32z"/>
<path d="M30170 23405 c0 -4 15 -24 33 -45 45 -51 52 -61 141 -182 43 -60 80
-108 82 -108 8 0 -114 176 -156 226 -85 100 -100 116 -100 109z"/>
<path d="M30513 23320 c5 -70 25 -119 84 -196 12 -17 23 -36 23 -42 0 -7 4
-12 9 -12 5 0 13 -10 17 -22 7 -24 44 -67 44 -52 0 11 -19 84 -27 104 -4 8 -7
18 -8 23 -2 4 -4 10 -5 15 -1 4 -2 11 -1 16 1 4 -2 13 -7 20 -14 17 -21 55
-11 58 15 5 -89 158 -107 158 -14 0 -15 -10 -11 -70z"/>
<path d="M30386 23305 c-12 -33 -6 -53 27 -82 18 -16 39 -38 47 -49 23 -32 94
-111 85 -94 -5 8 -32 51 -60 95 -28 44 -60 95 -72 113 -16 28 -21 31 -27 17z"/>
<path d="M30656 22773 c19 -61 28 -143 15 -143 -9 0 -56 51 -78 86 -27 41 1
-21 59 -134 65 -126 97 -174 110 -166 13 8 3 89 -18 159 -10 33 -19 62 -19 65
-2 7 -14 37 -43 112 -31 78 -48 91 -26 21z"/>
<path d="M30830 22478 c0 -4 5 -8 10 -8 6 0 10 -5 10 -10 0 -6 15 -43 34 -83
19 -40 40 -86 47 -102 25 -62 20 4 -6 77 -14 40 -27 78 -29 83 -10 34 -24 50
-43 51 -13 0 -23 -3 -23 -8z"/>
<path d="M30965 22285 c4 -22 13 -46 20 -54 11 -11 12 -6 3 30 -14 58 -32 77
-23 24z"/>
<path d="M13015 21670 c-38 -9 -64 -12 -255 -25 -136 -9 -232 -16 -280 -20
-25 -2 -76 -6 -115 -10 -38 -3 -97 -8 -130 -10 -94 -7 -211 -18 -340 -31 -171
-18 -218 -26 -254 -40 -18 -8 -37 -12 -41 -9 -5 3 -11 1 -14 -4 -9 -14 -84
-24 -246 -32 -30 -1 -73 -10 -95 -19 -72 -31 -206 -46 -457 -51 -52 -2 -99 1
-105 4 -7 4 -14 3 -18 -3 -4 -6 -78 -8 -213 -4 -440 11 -1270 5 -1497 -12 -49
-3 -164 -10 -315 -19 -41 -2 -138 -6 -216 -9 -123 -4 -147 -8 -199 -30 -62
-28 -100 -64 -108 -103 -7 -39 4 -136 19 -165 8 -15 22 -28 32 -29 9 0 42 -3
72 -5 204 -14 377 -17 845 -17 292 0 598 3 680 7 83 3 156 6 163 6 6 0 18 0
25 0 6 0 48 2 92 4 44 2 136 7 205 10 69 4 157 9 195 11 39 3 113 7 165 10 52
2 122 7 155 9 33 3 101 8 150 11 153 10 218 15 265 20 45 4 62 7 130 19 33 6
49 9 110 21 48 10 155 18 225 18 167 -2 166 -1 141 -80 -10 -32 -27 -78 -38
-103 -12 -25 -20 -46 -20 -47 3 -6 -100 -204 -112 -216 -7 -7 -34 -66 -61
-132 -26 -66 -53 -133 -60 -150 -8 -16 -30 -70 -50 -120 -20 -49 -42 -103 -49
-120 -7 -16 -26 -61 -41 -100 -15 -38 -36 -88 -46 -111 -11 -22 -19 -43 -19
-47 0 -3 -12 -32 -26 -64 -15 -31 -27 -62 -29 -67 -1 -6 -8 -24 -15 -41 -7
-16 -14 -32 -15 -35 0 -3 -11 -26 -23 -52 -12 -26 -22 -54 -22 -62 0 -9 -4
-16 -10 -16 -5 0 -10 -5 -10 -10 0 -6 -7 -27 -16 -48 -10 -20 -18 -41 -20 -47
-2 -10 -81 -187 -117 -265 -12 -25 -21 -47 -22 -50 -5 -24 -87 -180 -95 -180
-5 0 -10 -7 -10 -15 0 -8 -5 -15 -11 -15 -5 0 -7 -4 -4 -10 3 -5 1 -10 -5 -10
-6 0 -9 -4 -6 -8 2 -4 -2 -21 -9 -37 -13 -28 -51 -149 -89 -287 -14 -49 -127
-281 -196 -403 -40 -70 -206 -398 -228 -451 -11 -27 -23 -61 -26 -75 -5 -27
-65 -231 -95 -324 -18 -59 -102 -280 -121 -320 -5 -11 -36 -81 -68 -155 -122
-277 -415 -875 -621 -1265 -20 -38 -63 -119 -95 -180 -32 -60 -74 -139 -93
-175 -50 -94 -127 -246 -157 -312 -14 -32 -37 -83 -51 -113 -23 -50 -46 -103
-50 -115 -1 -3 -7 -18 -15 -35 -14 -31 -36 -83 -65 -150 -30 -68 -188 -390
-194 -395 -4 -3 -12 -16 -19 -30 -6 -14 -16 -32 -22 -40 -42 -65 -290 -474
-358 -590 -293 -503 -356 -697 -261 -805 36 -41 54 -45 221 -49 69 -2 130 -6
135 -9 5 -3 27 -8 48 -11 94 -13 121 -19 131 -27 6 -5 13 -6 16 -4 3 3 27 1
54 -6 27 -6 63 -13 79 -15 17 -2 41 -6 55 -9 14 -3 41 -7 60 -10 19 -2 55 -7
80 -10 60 -9 221 -9 350 -1 58 4 143 9 190 12 47 2 102 5 123 7 20 1 37 -2 37
-8 0 -6 3 -6 8 1 4 6 39 12 77 13 97 3 203 9 315 16 52 4 140 8 195 10 55 2
100 5 100 5 0 2 150 11 445 26 41 2 120 6 175 9 55 3 152 7 216 9 64 3 134 7
156 11 22 3 58 8 79 10 21 2 50 7 64 10 51 10 176 35 198 40 12 2 25 6 30 8 4
3 23 8 42 11 19 3 98 22 175 42 77 20 150 37 161 39 12 2 30 7 40 13 11 6 24
10 29 10 10 0 74 19 105 30 8 3 17 6 20 7 3 0 30 9 60 20 30 11 57 20 60 20 3
1 12 4 20 7 74 28 116 42 120 43 13 1 125 60 128 67 2 5 8 6 13 2 5 -3 9 0 9
7 0 7 3 10 6 6 3 -3 11 -2 18 4 6 5 47 33 91 61 44 29 89 60 100 69 11 9 58
47 105 85 159 127 395 362 567 564 35 41 204 266 222 295 10 17 11 9 6 -45 -3
-36 -8 -93 -10 -127 -3 -35 -29 -161 -59 -280 -30 -120 -57 -240 -60 -268 -4
-27 -9 -58 -12 -67 -3 -9 -7 -32 -9 -50 -6 -52 -15 -116 -30 -208 -8 -47 -17
-105 -20 -130 -3 -25 -8 -61 -11 -80 -24 -164 -34 -291 -24 -309 5 -10 7 -21
4 -24 -8 -8 25 -68 55 -100 44 -49 116 -78 226 -93 63 -9 133 -9 316 0 92 5
160 4 185 -3 82 -21 162 -21 202 2 2 1 25 23 52 49 27 26 67 58 89 72 66 42
89 73 87 117 0 22 2 39 6 39 6 0 6 8 -7 63 -23 96 -23 274 0 462 7 60 17 131
21 150 3 11 7 36 9 55 3 19 8 46 12 60 3 14 8 34 9 45 6 37 12 69 30 150 21
103 20 98 26 115 5 13 14 54 33 150 3 14 8 39 11 55 22 110 27 149 28 222 1
40 3 73 6 73 3 0 5 24 6 53 0 53 9 147 18 189 3 13 8 46 11 73 11 91 16 120
21 145 4 14 8 36 9 50 2 14 4 26 5 28 2 1 3 10 4 20 1 9 6 32 10 51 5 19 10
50 11 70 2 20 4 36 5 36 2 0 6 20 16 85 4 25 8 50 10 55 1 6 4 21 7 35 3 14
13 57 22 95 9 39 19 81 21 94 4 21 37 125 51 161 4 8 7 17 8 20 1 3 13 31 28
64 27 57 33 80 42 141 3 17 9 53 15 80 5 28 12 64 15 80 14 85 26 137 36 155
5 8 15 40 24 70 14 52 27 71 95 146 15 17 33 40 39 52 23 43 682 512 720 512
6 0 11 5 11 10 0 6 6 10 13 10 7 0 28 10 47 23 39 26 195 95 238 105 35 8 168
8 207 0 117 -25 187 -69 263 -168 23 -30 47 -61 52 -67 6 -7 8 -13 6 -13 -3 0
5 -15 17 -34 28 -41 98 -179 102 -204 2 -9 4 -17 5 -17 1 0 3 -7 5 -15 1 -8
10 -42 19 -76 8 -33 18 -71 20 -85 2 -13 5 -24 6 -24 1 0 3 -9 5 -20 4 -22 16
-81 22 -105 1 -8 5 -28 8 -45 2 -16 7 -41 10 -55 28 -129 19 -1183 -10 -1231
-4 -5 -1 -9 5 -9 6 0 8 -5 5 -10 -7 -12 -13 -85 -20 -240 -2 -58 -7 -181 -11
-275 -9 -200 -10 -702 -1 -795 8 -87 16 -145 28 -205 6 -27 13 -63 16 -79 7
-45 51 -173 80 -235 64 -138 181 -274 294 -340 105 -62 204 -105 294 -128 11
-3 70 -7 130 -9 61 -2 135 -5 165 -7 64 -2 141 18 225 61 33 16 92 42 130 57
126 48 149 59 205 96 77 51 213 187 285 284 17 22 32 42 35 45 7 7 102 149
115 172 6 9 33 55 60 100 28 46 77 137 110 203 33 66 63 122 66 125 3 3 14 26
24 53 10 26 22 47 26 47 5 0 8 3 7 8 -2 9 8 35 37 97 13 28 42 93 64 145 l40
95 0 -270 c0 -148 2 -279 4 -290 3 -11 8 -42 11 -70 24 -176 85 -351 167 -476
47 -73 156 -191 196 -212 10 -6 21 -14 24 -20 7 -11 24 -20 115 -68 170 -89
398 -138 644 -140 146 0 236 10 386 46 102 24 306 96 331 116 7 6 13 9 13 5 0
-3 20 6 45 20 25 13 45 21 45 17 0 -4 4 -3 8 2 4 6 27 21 52 34 52 28 163 93
170 101 3 3 32 23 65 44 55 36 213 152 225 165 3 3 28 24 55 46 59 47 90 73
121 100 126 113 174 157 283 266 152 151 272 284 381 419 19 24 41 49 48 57 7
7 11 13 8 13 -3 0 2 9 12 19 24 27 55 65 72 91 21 31 40 50 51 50 9 0 14 -25
9 -45 -1 -5 -4 -35 -5 -65 -1 -30 -6 -120 -10 -200 -16 -286 -8 -574 21 -730
2 -14 7 -41 10 -60 3 -19 10 -43 15 -52 5 -10 8 -18 5 -18 -7 0 39 -109 66
-157 25 -43 125 -132 213 -188 86 -55 110 -69 120 -72 6 -1 37 -10 70 -19 46
-14 101 -18 240 -18 230 -1 278 7 438 78 31 14 58 25 60 23 1 -1 9 4 17 11 8
7 49 34 90 61 81 53 99 66 199 152 122 104 282 271 386 403 17 20 41 51 54 67
13 17 45 60 72 97 26 37 52 72 56 77 5 6 17 23 27 40 11 16 23 34 28 40 43 51
270 429 333 555 44 88 192 407 240 515 7 17 24 55 38 85 13 30 46 109 72 175
54 138 56 180 10 240 -22 29 -94 86 -115 91 -3 0 -18 6 -33 12 -32 14 -75 9
-92 -10 -7 -7 -27 -58 -45 -113 -41 -127 -127 -340 -190 -472 -27 -57 -46
-103 -43 -103 3 0 -2 -9 -12 -20 -10 -11 -14 -20 -9 -20 5 0 5 -4 -1 -8 -5 -4
-38 -63 -73 -132 -95 -190 -146 -285 -154 -288 -4 -2 -8 -8 -8 -12 0 -8 -48
-96 -85 -155 -7 -11 -12 -24 -13 -29 0 -5 -4 -12 -9 -15 -5 -3 -24 -31 -43
-61 -52 -82 -128 -180 -175 -225 -23 -22 -57 -67 -75 -100 -57 -102 -349 -372
-500 -462 -40 -25 -134 -63 -167 -69 -13 -2 -35 -7 -50 -10 -36 -8 -158 -9
-203 -2 -67 11 -140 31 -140 39 0 4 -13 10 -28 14 -35 7 -114 75 -152 131 -32
45 -66 129 -75 183 -3 19 -8 38 -11 42 -3 5 -7 25 -9 46 -2 21 -7 48 -9 61
-18 83 -27 442 -14 511 9 47 11 60 23 186 10 102 13 128 35 255 27 160 29 172
36 200 3 14 8 36 10 50 3 14 7 32 11 40 3 8 7 29 8 45 2 17 11 59 20 95 9 36
18 72 20 80 10 45 91 351 120 450 18 63 72 248 120 410 88 302 194 685 201
730 3 14 7 31 10 39 2 8 7 30 10 50 11 74 46 219 75 316 43 140 99 317 106
335 3 8 7 17 8 20 2 7 12 39 57 180 22 69 41 133 43 144 3 10 11 42 19 70 17
59 46 193 50 227 2 13 15 65 29 114 14 50 28 101 30 115 3 14 9 36 15 50 5 14
15 56 21 94 11 61 10 73 -5 102 -22 40 -62 64 -89 54 -18 -7 -143 -6 -205 2
-37 4 -68 -61 -146 -302 -36 -113 -76 -236 -88 -275 -13 -38 -29 -97 -36 -130
-12 -58 -39 -152 -113 -395 -46 -148 -67 -233 -74 -289 -4 -36 -43 -197 -87
-361 -18 -68 -117 -382 -171 -545 -37 -110 -68 -204 -69 -210 -2 -5 -7 -19
-11 -30 -4 -11 -21 -53 -37 -94 -16 -40 -49 -119 -74 -175 -25 -55 -52 -114
-59 -131 -7 -16 -24 -55 -38 -85 -13 -30 -44 -100 -67 -155 -23 -55 -47 -106
-52 -112 -6 -7 -7 -13 -4 -13 4 0 1 -10 -6 -22 -7 -13 -11 -26 -10 -30 1 -5
-2 -8 -8 -8 -6 0 -9 -3 -8 -7 1 -5 -9 -30 -22 -58 -13 -27 -24 -52 -25 -55
-23 -66 -132 -278 -187 -361 -30 -46 -63 -99 -73 -116 -11 -18 -23 -33 -27
-33 -4 0 -8 -5 -8 -12 0 -24 -166 -266 -226 -331 -35 -37 -78 -93 -96 -123
-64 -114 -503 -528 -743 -700 -134 -96 -341 -214 -376 -214 -8 0 -19 -4 -24
-9 -6 -6 -23 -12 -40 -15 -16 -2 -30 -5 -30 -6 0 -11 -129 -18 -142 -8 -7 6
-13 8 -13 4 0 -4 -11 0 -23 9 -25 16 -93 105 -81 105 3 0 2 6 -4 13 -5 6 -13
28 -18 47 -11 50 -11 50 -14 53 -3 3 -8 30 -15 87 -3 24 -8 56 -11 70 -6 29
-14 123 -19 230 -2 41 -4 75 -5 75 -1 0 -3 21 -3 48 -1 26 0 47 3 47 5 0 5 48
0 60 -1 3 -2 9 -1 14 7 34 5 83 -3 79 -5 -4 -6 -1 -1 7 4 7 9 44 11 84 4 103
13 233 19 291 3 28 7 77 9 110 3 33 7 78 10 100 3 22 7 65 10 95 3 30 8 73 12
95 4 22 8 54 9 70 2 17 4 30 5 30 1 0 3 16 5 35 1 19 5 55 9 80 4 25 9 63 12
85 3 22 8 51 10 65 2 14 6 40 9 59 5 40 13 94 21 136 3 17 7 41 9 55 2 14 8
52 14 85 6 33 13 78 16 100 4 22 8 47 10 55 2 8 6 29 9 45 26 159 31 183 50
249 8 28 15 54 16 58 0 4 7 26 15 48 8 22 12 40 10 40 -2 0 10 39 26 86 16 47
31 99 34 116 3 17 9 36 13 42 3 6 7 18 9 26 1 8 25 89 53 180 28 91 56 183 61
205 6 21 15 45 21 52 6 7 8 13 5 13 -2 0 13 57 35 128 23 70 43 139 45 155 3
15 9 27 12 27 4 0 8 6 9 13 1 23 12 64 28 108 8 24 17 52 19 62 2 9 13 45 24
80 41 125 115 362 117 375 5 25 46 157 58 187 25 58 58 145 60 157 2 7 8 31
14 53 6 22 13 52 16 68 13 70 27 144 32 167 13 61 12 213 -2 254 -39 115 -115
140 -364 121 -137 -10 -617 -13 -652 -4 -16 4 -28 4 -28 -1 0 -6 -10 -6 -23
-1 -13 5 -30 5 -37 1 -8 -5 -17 -7 -21 -4 -4 2 -33 -1 -65 -7 -76 -14 -74 -14
-107 -27 -16 -7 -31 -12 -35 -12 -17 0 -83 -87 -93 -123 -6 -23 -17 -57 -25
-75 -8 -18 -14 -38 -14 -45 0 -6 -9 -34 -19 -62 -23 -58 -33 -86 -37 -100 -1
-5 -16 -55 -34 -110 -17 -55 -51 -183 -76 -285 -38 -154 -137 -567 -149 -620
-1 -8 -22 -96 -45 -195 -67 -288 -108 -470 -141 -620 -16 -77 -32 -151 -36
-165 -3 -14 -7 -32 -9 -40 -2 -8 -17 -80 -33 -160 -16 -80 -35 -172 -40 -205
-6 -33 -13 -71 -16 -85 -10 -52 -25 -136 -29 -170 -3 -19 -8 -52 -11 -72 -2
-21 -8 -62 -11 -90 -4 -29 -8 -60 -10 -68 -1 -8 -3 -22 -3 -31 -1 -9 -14 -22
-30 -28 -28 -12 -66 -73 -75 -122 -2 -13 -5 -24 -6 -24 -1 0 -3 -7 -5 -15 -2
-8 -18 -69 -35 -135 -18 -66 -34 -129 -36 -140 -12 -64 -29 -123 -44 -149 -10
-17 -27 -71 -40 -121 -22 -90 -47 -177 -57 -205 -3 -8 -8 -24 -10 -34 -2 -11
-10 -27 -17 -35 -16 -20 -116 -223 -116 -237 0 -6 -9 -28 -19 -50 -11 -21 -17
-42 -14 -46 2 -5 0 -8 -5 -8 -5 0 -12 -10 -16 -22 -3 -13 -6 -25 -7 -28 -1 -3
-10 -23 -22 -45 -11 -22 -20 -42 -19 -45 0 -3 -5 -12 -12 -20 -7 -8 -21 -37
-31 -65 -10 -27 -36 -88 -58 -135 -22 -47 -40 -88 -39 -92 1 -5 -2 -8 -8 -8
-5 0 -10 -5 -10 -11 0 -6 -13 -31 -30 -56 -16 -24 -30 -46 -30 -49 0 -7 -87
-120 -125 -163 -46 -51 -117 -120 -148 -144 -16 -12 -34 -26 -40 -32 -35 -30
-87 -65 -96 -65 -6 0 -11 -5 -11 -11 0 -5 -4 -8 -9 -5 -5 4 -11 2 -13 -3 -1
-5 -64 -40 -138 -77 l-135 -68 -100 -1 c-55 -1 -113 3 -130 8 -113 34 -193
103 -255 219 -41 76 -95 220 -105 280 -3 17 -7 34 -9 37 -2 3 -7 24 -10 46 -4
22 -11 65 -16 96 -11 58 -14 86 -27 219 -10 99 -10 761 0 970 11 234 15 313
21 415 19 343 26 911 13 995 -3 19 -8 58 -11 85 -11 105 -32 237 -52 313 -7
30 -13 57 -12 60 1 4 -1 14 -4 22 -3 8 -22 67 -43 130 -20 63 -43 125 -51 137
-8 12 -14 29 -14 38 0 8 -4 15 -10 15 -5 0 -10 4 -10 9 0 15 -62 111 -71 111
-5 0 -9 7 -9 16 0 20 -255 274 -275 274 -8 0 -15 4 -15 9 0 11 -63 41 -98 47
-15 3 -34 7 -42 10 -24 10 -69 14 -160 15 -111 1 -169 -8 -300 -49 -47 -14
-88 -25 -92 -24 -5 1 -8 -3 -8 -8 0 -6 -9 -10 -20 -10 -11 0 -20 -4 -20 -8 0
-4 -16 -14 -35 -20 -19 -7 -78 -38 -132 -69 -54 -31 -107 -61 -118 -67 -30
-17 -75 -46 -122 -77 -23 -16 -46 -29 -52 -29 -7 0 -14 -7 -17 -15 -4 -8 -10
-15 -15 -15 -17 0 -216 -151 -283 -214 -16 -16 -26 -21 -23 -11 7 16 37 128
42 155 21 109 47 141 160 200 99 53 338 192 345 201 3 3 21 15 40 25 20 11 42
25 50 32 8 6 47 33 85 59 65 43 265 195 343 260 41 34 312 302 363 358 34 38
210 253 249 305 71 93 90 120 90 129 0 5 4 11 8 13 7 2 115 161 159 233 7 11
31 52 55 90 23 39 48 79 54 90 6 11 24 45 41 75 37 66 107 203 108 210 0 3 13
34 28 70 16 36 32 74 37 85 22 51 65 203 75 265 3 19 7 46 10 60 3 14 7 54 10
90 3 36 10 81 15 100 12 40 50 212 55 250 2 14 6 39 9 55 27 149 34 236 31
405 -3 179 -6 210 -31 362 -26 154 -97 366 -141 419 -7 8 -13 20 -13 26 0 6
-3 13 -8 15 -4 2 -23 23 -42 47 -77 99 -211 170 -331 176 -60 3 -207 -19 -284
-43 -107 -34 -263 -103 -350 -156 -59 -36 -419 -403 -545 -556 -34 -41 -70
-84 -80 -96 -32 -38 -177 -247 -262 -379 -130 -200 -578 -931 -578 -944 0 -6
-4 -11 -9 -11 -5 0 -14 -12 -20 -27 -5 -16 -24 -53 -42 -83 -17 -30 -45 -80
-61 -110 -17 -30 -33 -59 -37 -65 -3 -5 -6 -16 -8 -24 -1 -8 -5 -17 -10 -20
-8 -6 -57 -99 -59 -111 0 -3 -24 -54 -53 -115 -29 -60 -57 -119 -61 -130 -5
-11 -18 -41 -29 -67 -12 -26 -21 -52 -21 -58 0 -6 -7 -22 -16 -36 -9 -13 -14
-27 -10 -31 3 -3 2 -11 -3 -17 -8 -11 -40 -102 -42 -121 -1 -5 -6 -19 -12 -30
-6 -11 -12 -25 -13 -30 -1 -6 -17 -58 -35 -115 -18 -58 -34 -107 -35 -110 0
-3 -4 -13 -7 -22 -17 -44 -20 -54 -22 -63 -1 -5 -3 -12 -4 -15 -1 -3 -4 -14
-6 -25 -7 -31 -94 -297 -109 -330 -38 -82 -121 -328 -170 -500 -2 -5 -6 -17
-9 -25 -8 -19 -154 -683 -161 -734 -4 -21 -8 -42 -11 -46 -3 -4 -7 -23 -10
-43 -3 -19 -17 -75 -30 -123 -31 -112 -73 -271 -79 -304 -3 -14 -30 -135 -60
-270 -31 -135 -56 -251 -56 -258 0 -8 -8 -21 -19 -30 -10 -10 -28 -46 -40 -82
-29 -84 -230 -491 -316 -640 -116 -201 -348 -561 -366 -568 -5 -2 -9 -10 -9
-18 0 -8 -4 -14 -8 -14 -4 0 -16 -14 -26 -31 -10 -18 -26 -40 -35 -49 -9 -9
-38 -44 -66 -76 -50 -59 -194 -205 -253 -256 -17 -15 -69 -55 -114 -88 -46
-33 -88 -65 -95 -70 -7 -6 -24 -15 -38 -22 -14 -6 -25 -15 -25 -20 0 -4 -5 -8
-10 -8 -6 0 -27 -11 -48 -23 -62 -40 -174 -97 -189 -97 -7 0 -13 -4 -13 -10 0
-5 -9 -10 -20 -10 -11 0 -20 -5 -20 -10 0 -6 -3 -9 -7 -8 -5 1 -21 -4 -38 -11
-16 -6 -55 -21 -85 -32 -30 -12 -64 -25 -75 -29 -18 -8 -92 -32 -105 -35 -3
-1 -25 -7 -50 -14 -25 -7 -52 -15 -60 -16 -8 -2 -16 -4 -17 -5 -3 -3 -2 -2
-58 -15 -47 -10 -54 -12 -57 -15 -2 -1 -12 -3 -23 -5 -11 -1 -33 -5 -50 -8
-29 -6 -89 -14 -170 -23 -22 -3 -53 -6 -70 -9 -16 -2 -47 -6 -67 -9 -20 -3
-56 -8 -80 -12 -48 -7 -82 -12 -148 -19 -25 -2 -65 -7 -90 -10 -25 -3 -72 -7
-105 -10 -33 -3 -94 -8 -135 -11 -41 -4 -111 -8 -155 -9 -44 -2 -80 -4 -80 -5
0 -3 -279 -9 -729 -14 l-459 -6 6 78 c5 69 37 218 52 243 4 5 9 21 11 36 3 14
11 38 19 54 8 15 15 32 15 38 0 5 5 22 12 38 6 15 12 30 13 33 21 57 39 96 95
205 37 72 99 186 138 254 108 190 223 427 303 626 39 99 84 207 99 240 15 33
38 83 50 110 37 82 132 272 202 405 58 110 153 308 211 440 21 49 50 113 91
203 14 32 26 59 26 62 0 2 14 34 32 72 18 37 33 73 34 78 1 6 19 46 40 90 21
44 38 82 39 85 0 3 15 33 32 68 18 34 29 62 26 62 -3 0 2 9 12 20 10 11 15 20
10 20 -4 0 -2 7 5 15 7 9 23 35 35 58 12 23 34 67 50 97 16 30 30 60 31 65 6
24 47 132 60 157 8 15 14 29 13 30 -1 2 12 30 29 63 17 33 46 94 65 135 19 41
54 116 78 165 23 50 43 92 44 95 1 6 43 95 92 197 20 43 38 80 38 83 1 3 10
25 22 50 11 25 33 79 48 120 16 41 70 156 120 255 51 99 104 209 118 245 32
82 68 160 145 320 136 283 186 388 212 445 28 62 79 168 170 360 29 61 79 166
112 234 32 68 69 137 83 152 69 83 295 499 295 545 0 8 5 14 10 14 6 0 10 6
10 13 0 8 17 54 38 103 51 117 55 127 58 143 1 8 9 18 16 22 7 5 10 9 6 9 -6
0 26 85 67 175 7 17 17 42 20 58 4 15 11 27 16 27 5 0 9 4 9 9 0 5 5 22 12 38
6 15 12 30 13 33 0 3 12 28 25 55 13 28 25 52 25 55 6 20 23 52 49 90 53 77
70 119 81 195 3 23 8 52 11 65 4 21 5 104 2 147 -1 7 -13 27 -28 45 -24 28
-33 32 -86 34 -32 2 -77 -1 -99 -6z m-291 -488 c-68 -66 -107 -101 -224 -202
-31 -27 -114 -97 -180 -152 -86 -72 -217 -168 -229 -168 -5 0 -11 -3 -13 -7
-6 -14 -81 -44 -88 -36 -12 12 23 135 70 247 81 195 149 312 182 313 12 0 29
3 118 18 14 2 45 6 70 9 25 3 56 8 70 11 14 3 44 8 66 11 23 2 53 7 65 10 13
2 46 7 73 9 27 3 50 6 52 8 2 1 13 3 26 4 18 2 6 -14 -58 -75z m4636 28 c83
-42 137 -154 166 -340 2 -19 7 -51 10 -70 3 -19 7 -116 9 -215 3 -172 -5 -266
-34 -406 -6 -30 -14 -65 -16 -79 -8 -38 -13 -60 -31 -130 -9 -36 -17 -72 -19
-80 -1 -8 -5 -22 -8 -30 -11 -26 -80 -264 -80 -277 0 -7 -4 -13 -9 -13 -4 0
-8 -6 -8 -14 0 -12 -81 -259 -96 -296 -4 -8 -8 -19 -10 -25 -1 -5 -9 -29 -18
-53 -8 -23 -16 -46 -17 -50 -1 -4 -5 -17 -10 -30 -5 -13 -9 -29 -9 -36 0 -8
-30 -45 -67 -83 -70 -71 -82 -86 -110 -140 -9 -18 -20 -33 -25 -33 -4 0 -8 -5
-8 -12 0 -12 -72 -121 -97 -146 -7 -7 -13 -20 -13 -28 0 -8 -4 -14 -10 -14 -5
0 -12 -11 -16 -25 -3 -14 -10 -25 -15 -25 -5 0 -9 -4 -9 -9 0 -5 -19 -38 -41
-73 -160 -244 -184 -273 -429 -516 -149 -148 -196 -187 -312 -260 -64 -40
-340 -182 -354 -182 -6 0 -2 53 10 145 6 46 82 422 96 475 5 19 11 46 14 60 2
14 14 61 26 105 12 44 24 89 26 99 28 140 183 596 259 760 33 73 102 250 238
611 58 154 120 312 137 350 17 39 32 72 32 75 3 19 95 223 166 370 193 401
352 602 512 651 49 15 130 10 170 -11z m-4890 -682 c-28 -79 -127 -285 -140
-293 -6 -4 -8 -10 -6 -14 3 -4 -13 -29 -35 -56 -22 -28 -82 -135 -133 -240
-138 -280 -157 -310 -211 -330 -40 -16 -133 -69 -161 -94 -59 -50 -250 -161
-278 -161 -6 0 -39 -27 -112 -92 -34 -31 -64 -48 -64 -35 0 4 47 130 61 162 7
17 13 32 14 35 3 8 40 89 90 195 46 97 74 157 135 290 16 35 32 75 35 88 4 13
38 51 77 83 85 70 91 74 126 80 35 7 100 45 155 92 24 20 63 53 88 74 24 20
54 44 66 55 141 120 301 238 311 228 3 -2 -5 -33 -18 -67z m3734 -314 c-5 -28
-60 -166 -197 -499 -132 -322 -179 -417 -213 -439 -16 -11 -50 -41 -76 -67
-26 -26 -74 -66 -105 -87 -90 -61 -192 -122 -204 -122 -10 0 37 64 85 116 11
12 21 30 22 41 14 90 223 478 382 708 119 173 284 375 306 375 2 0 3 -12 0
-26z m-4419 -1116 c-42 -139 -110 -280 -191 -396 -25 -35 -54 -82 -65 -105
-25 -50 -91 -113 -219 -210 -52 -40 -102 -79 -112 -87 -9 -8 -69 -51 -132 -95
-70 -49 -116 -89 -120 -102 -6 -21 -50 -42 -61 -31 -3 3 1 26 9 51 8 26 12 47
10 47 -3 0 2 10 10 23 8 12 21 47 30 77 8 30 42 107 75 170 33 63 77 149 97
191 34 70 42 79 113 124 42 27 78 52 81 56 6 7 212 143 225 148 6 2 12 7 15
11 6 8 134 91 167 109 12 6 34 23 49 36 15 14 28 25 29 25 2 0 -3 -19 -10 -42z
m3845 -330 c-17 -88 -19 -96 -56 -206 -39 -118 -58 -164 -77 -184 -6 -7 -37
-42 -67 -78 -30 -36 -59 -70 -65 -76 -30 -34 -102 -120 -113 -136 -8 -10 -25
-31 -39 -46 -14 -15 -37 -43 -51 -62 -34 -45 -71 -88 -94 -105 -57 -45 -72
-55 -78 -55 -16 0 -18 45 -4 84 8 23 16 46 17 51 1 6 5 12 8 15 5 4 85 195 94
225 13 43 18 55 24 55 4 0 18 24 31 53 20 44 66 111 105 153 5 6 23 26 39 45
104 121 274 300 306 321 31 22 34 14 20 -54z m5785 -538 c8 -12 -29 -88 -59
-123 -11 -13 -33 -38 -47 -56 -14 -17 -86 -71 -160 -119 -74 -49 -197 -133
-274 -187 -141 -99 -294 -190 -303 -180 -7 7 -6 131 2 190 8 59 46 226 54 240
4 6 7 15 8 22 3 16 23 83 33 108 5 11 13 32 20 48 8 20 18 27 38 28 34 0 145
7 233 14 36 3 117 8 180 11 63 3 116 7 117 8 8 7 154 3 158 -4z m-10233 -416
c3 -3 -21 -59 -53 -124 -32 -66 -59 -123 -59 -126 0 -4 -7 -15 -16 -25 -8 -9
-17 -23 -18 -31 -4 -20 -122 -256 -138 -275 -7 -9 -12 -18 -10 -20 2 -2 -17
-45 -41 -96 -48 -99 -73 -126 -178 -194 -99 -63 -346 -193 -422 -222 l-25 -10
29 67 c17 37 38 85 49 107 39 83 90 197 90 201 0 2 15 36 34 76 18 40 44 96
56 123 64 140 81 173 109 203 17 17 35 32 40 32 5 0 11 4 13 9 5 14 115 84
223 141 55 29 109 59 120 67 11 7 32 13 47 13 15 0 31 6 35 13 4 6 25 27 46
45 36 31 57 39 69 26z m4102 -186 c-3 -74 -14 -157 -28 -223 -12 -52 -39 -151
-44 -160 -4 -5 -7 -12 -7 -15 -1 -16 -41 -100 -48 -100 -5 0 -6 -4 -3 -9 3 -5
-1 -14 -9 -21 -8 -7 -15 -18 -15 -25 0 -32 -157 -212 -236 -271 -22 -16 -41
-31 -44 -34 -19 -21 -200 -123 -207 -117 -13 14 4 170 30 283 8 34 50 128 60
135 5 4 6 12 3 18 -4 6 -3 11 2 11 6 0 13 11 16 25 7 27 77 118 135 176 20 20
51 58 70 85 64 93 274 284 322 293 3 1 4 -23 3 -51z m6016 -112 c0 -8 -5 -27
-11 -43 -6 -15 -12 -35 -14 -43 -4 -19 -32 -109 -57 -184 -11 -32 -22 -66 -23
-75 -2 -9 -4 -17 -5 -18 -2 -2 -3 -6 -4 -10 -12 -48 -32 -99 -41 -105 -5 -4
-7 -8 -3 -8 7 0 -5 -36 -37 -115 -4 -11 -10 -29 -12 -39 -4 -24 11 -14 -123
-81 -122 -61 -264 -140 -370 -207 -96 -61 -333 -198 -336 -195 -2 2 10 44 26
95 17 51 30 100 30 110 0 62 72 266 106 300 8 7 14 18 14 23 0 21 171 180 265
245 38 26 185 118 205 127 8 4 29 16 45 27 17 10 54 31 84 47 29 15 63 37 75
48 100 93 186 139 186 101z m-6279 -965 c-1 -30 -4 -61 -6 -71 -2 -10 -6 -34
-9 -53 -14 -86 -92 -247 -166 -341 -85 -107 -169 -190 -255 -251 -56 -40 -148
-95 -159 -95 -2 0 -7 13 -11 30 -7 33 7 114 37 205 11 33 21 67 23 75 2 8 13
43 24 77 22 72 49 100 231 238 63 48 150 123 194 166 44 44 85 78 90 76 6 -2
9 -27 7 -56z m-4461 -123 c-1 -9 -31 -110 -45 -146 -24 -67 -138 -299 -198
-403 -60 -105 -75 -130 -171 -308 -37 -68 -82 -139 -99 -158 -44 -49 -162
-137 -199 -149 -10 -4 -18 -10 -18 -15 0 -5 -9 -9 -19 -9 -11 0 -22 -4 -25 -9
-3 -4 -50 -30 -103 -56 -54 -27 -110 -57 -125 -67 -16 -11 -28 -16 -28 -11 0
4 -5 0 -11 -9 -5 -10 -16 -18 -23 -18 -8 0 -19 -7 -26 -15 -7 -8 -16 -12 -20
-10 -18 11 -4 53 48 145 61 108 85 150 132 235 18 33 79 141 135 240 56 99
119 213 140 254 53 100 120 190 212 284 116 118 215 183 320 212 42 11 123 20
123 13z m10321 -190 c2 -43 -5 -123 -11 -123 -1 0 -3 -13 -6 -30 -7 -51 -9
-60 -18 -73 -4 -7 -5 -16 -2 -19 3 -3 -1 -18 -10 -34 -8 -16 -14 -31 -14 -34
-1 -20 -14 -66 -21 -71 -5 -3 -7 -10 -3 -15 3 -5 0 -16 -6 -24 -7 -8 -10 -15
-7 -15 5 0 -21 -64 -60 -147 -8 -17 -49 -59 -91 -91 -43 -33 -90 -72 -107 -86
-39 -35 -198 -144 -222 -153 -10 -4 -20 -9 -23 -12 -3 -3 -27 -17 -55 -30 -27
-13 -62 -29 -77 -37 -33 -17 -54 -18 -61 -1 -12 32 -3 159 18 251 37 160 88
292 127 326 18 17 36 30 39 30 3 0 17 9 30 20 13 11 29 23 34 28 28 22 387
283 428 311 42 29 82 47 110 50 4 1 7 -9 8 -21z m-6075 -635 c-3 -49 -8 -106
-11 -128 -7 -50 -45 -206 -53 -220 -4 -5 -7 -12 -7 -15 -4 -36 -96 -243 -118
-264 -7 -8 -24 -27 -38 -42 -33 -39 -171 -161 -241 -212 -74 -54 -145 -89
-157 -76 -19 18 -21 76 -6 132 8 31 31 125 51 207 19 83 44 169 54 192 19 43
91 124 244 272 124 120 125 122 181 166 28 22 58 47 68 57 32 32 37 21 33 -69z
m5798 -658 c-2 -140 -8 -208 -21 -255 -3 -14 -5 -29 -4 -34 1 -4 -3 -14 -9
-20 -5 -7 -7 -15 -4 -19 3 -3 -6 -33 -21 -66 -24 -53 -41 -72 -124 -139 -193
-157 -380 -292 -405 -292 -13 0 -13 14 -2 407 5 158 8 188 26 223 25 49 152
180 174 180 9 0 16 4 16 8 0 5 19 18 43 30 23 12 69 38 102 57 33 20 71 41 85
47 14 7 27 15 30 19 3 3 19 13 35 22 17 8 39 25 50 37 l20 22 6 -43 c3 -24 5
-107 3 -184z m-10814 -100 c0 -2 -36 -77 -80 -165 -43 -88 -77 -160 -73 -160
3 0 1 -6 -5 -13 -6 -6 -36 -61 -67 -122 -223 -431 -328 -556 -638 -764 -96
-65 -130 -79 -195 -84 -47 -4 -63 5 -41 23 4 3 15 23 26 45 11 22 41 78 66
125 108 203 181 344 249 480 40 80 76 147 81 148 4 2 7 9 7 16 0 7 10 31 23
54 16 30 47 58 121 106 54 36 103 66 107 66 5 0 9 4 9 10 0 5 15 17 33 26 17
9 34 20 37 23 8 11 170 117 235 153 53 30 105 46 105 33z m4785 -402 c-3 -54
-8 -116 -10 -138 -3 -22 -6 -73 -8 -114 -2 -55 -7 -76 -20 -86 -9 -7 -22 -36
-27 -66 -13 -69 -41 -109 -175 -245 -135 -137 -216 -198 -311 -234 -25 -10
-26 -9 -22 15 3 14 1 28 -4 31 -14 9 -7 179 10 253 36 160 115 294 259 440 46
47 83 88 83 92 0 4 15 16 33 28 17 11 41 28 52 38 44 40 110 83 128 83 17 0
18 -7 12 -97z m5911 -481 c-2 -48 -4 -87 -5 -87 -1 0 -4 -27 -6 -60 -2 -33
-10 -94 -16 -135 -7 -41 -11 -97 -11 -124 3 -72 -40 -123 -218 -260 -116 -89
-154 -110 -168 -93 -22 28 -72 241 -72 311 -1 23 -7 68 -14 101 -12 55 -11 63
7 96 20 38 107 102 195 142 28 13 81 52 120 88 64 60 167 123 184 113 3 -2 5
-44 4 -92z m-6095 -586 c-5 -6 -12 -27 -16 -46 -3 -19 -8 -44 -10 -55 -2 -11
-4 -20 -5 -20 0 0 -3 -27 -5 -60 -7 -106 -38 -252 -66 -307 -34 -67 -48 -71
-243 -71 -95 0 -178 3 -185 8 -21 12 -9 131 19 185 36 73 102 151 160 190 12
8 32 22 44 31 51 38 245 157 262 161 30 6 56 -3 45 -16z m-5368 -98 c-4 -7 -8
-15 -9 -18 -7 -29 -28 -70 -37 -70 -6 0 -8 -3 -5 -6 7 -7 -51 -136 -66 -146
-6 -4 -8 -8 -4 -8 12 0 -32 -78 -48 -84 -8 -3 -20 -3 -26 -1 -7 2 -56 7 -108
10 -248 15 -265 17 -280 31 -12 12 -10 18 19 48 18 18 44 39 59 47 15 7 41 23
57 34 17 12 35 21 40 21 6 0 41 15 80 33 56 27 169 70 295 114 28 10 41 8 33
-5z m11446 -238 c12 -52 24 -102 27 -111 3 -12 -4 -15 -38 -13 -24 1 -43 3
-43 4 0 1 -12 3 -27 4 -74 7 -110 45 -89 96 12 32 98 120 117 120 8 0 14 6 14
13 1 27 18 -22 39 -113z"/>
<path d="M30814 21362 c3 -5 8 -44 11 -86 6 -85 8 -99 15 -106 3 -3 16 -29 30
-58 23 -50 53 -88 36 -46 -8 20 -11 34 -21 99 -10 67 -37 170 -47 176 -5 3 -9
10 -8 15 1 5 -4 10 -11 13 -6 2 -9 -1 -5 -7z"/>
<path d="M30969 21278 c-4 -74 -1 -105 15 -178 4 -14 8 -34 10 -45 2 -11 11
-38 20 -59 9 -22 14 -41 11 -44 -2 -2 1 -14 7 -26 7 -11 13 -23 13 -26 2 -12
28 -86 34 -95 3 -5 6 -12 7 -15 0 -3 3 -12 6 -20 4 -8 9 -24 12 -35 4 -17 15
-46 60 -167 3 -10 9 -26 13 -35 3 -10 5 -21 5 -25 -1 -4 5 -25 13 -45 34 -89
59 -260 44 -300 -7 -18 -1 -28 29 -57 69 -66 105 -96 109 -92 3 2 -1 24 -8 47
-7 24 -14 49 -14 54 -2 12 -32 116 -51 170 -7 22 -15 49 -17 60 -1 11 -5 25
-9 30 -3 6 -9 26 -14 45 -11 49 -11 49 -14 55 -1 3 -3 8 -5 13 -1 4 -4 14 -8
22 -3 8 -20 62 -38 120 -18 58 -36 110 -40 116 -5 6 -6 14 -2 17 3 4 1 7 -5 7
-7 0 -11 3 -10 8 2 6 -14 55 -39 122 -4 8 -7 17 -8 20 -1 3 -4 12 -8 20 -12
31 -49 145 -51 157 -1 7 -5 16 -9 19 -4 4 -7 15 -7 25 0 10 -7 38 -15 63 -8
24 -16 56 -17 70 -3 32 -18 35 -19 4z"/>
<path d="M2893 19526 c-13 -6 -23 -16 -23 -22 0 -15 28 -26 35 -14 6 9 16 51
12 49 -1 -1 -12 -6 -24 -13z"/>
<path d="M31394 19455 c5 -11 20 -56 35 -100 25 -77 55 -134 65 -124 6 5 -87
226 -100 237 -4 4 -4 -2 0 -13z"/>
<path d="M2925 19427 c-8 -18 -17 -43 -19 -54 -3 -12 -10 -31 -16 -42 -6 -12
-7 -21 -1 -21 7 0 15 17 27 65 1 6 9 27 18 48 20 46 13 49 -9 4z"/>
<path d="M31849 17027 c-13 -8 -15 -18 -7 -51 11 -49 27 -68 63 -71 25 -3 26
-1 20 28 -10 44 -34 94 -48 100 -7 2 -19 0 -28 -6z"/>
<path d="M31704 16787 c1 -51 -2 -106 -6 -124 l-7 -32 59 37 59 37 -22 40
c-12 21 -36 61 -53 86 l-30 48 0 -92z"/>
<path d="M31825 16208 c-27 -69 -34 -133 -16 -151 6 -6 26 82 48 206 6 33 -4
16 -32 -55z"/>
<path d="M31581 14733 c-1 -6 -4 -20 -7 -30 -5 -17 -5 -17 6 0 6 10 9 23 6 30
-3 9 -5 9 -5 0z"/>
<path d="M3529 13092 c-3 -36 -2 -58 5 -102 8 -56 23 -127 26 -120 1 5 2 166
1 206 -1 27 -30 41 -32 16z"/>
<path d="M5015 9473 c-4 -31 -9 -62 -12 -70 -11 -29 14 -10 40 32 27 42 27 45
11 70 -9 14 -20 25 -24 25 -4 0 -11 -25 -15 -57z"/>
<path d="M28496 9063 c-6 -14 -5 -15 5 -6 7 7 10 15 7 18 -3 3 -9 -2 -12 -12z"/>
<path d="M7043 7194 c12 -14 47 -62 77 -107 56 -84 90 -107 104 -70 6 13 -5
29 -41 62 -26 24 -71 65 -99 92 -56 53 -78 65 -41 23z"/>
<path d="M8983 5423 c4 -3 2 -12 -4 -19 -15 -18 22 -32 100 -38 33 -2 65 -7
73 -11 7 -3 4 1 -7 10 -35 29 -113 65 -141 65 -15 0 -24 -3 -21 -7z"/>
<path d="M8938 5373 c7 -3 16 -2 19 1 4 3 -2 6 -13 5 -11 0 -14 -3 -6 -6z"/>
<path d="M16495 2940 c-2 -4 10 -7 28 -7 18 -1 62 -3 100 -6 37 -3 69 -2 71 2
2 3 -17 7 -42 7 -26 1 -71 3 -100 6 -29 2 -55 1 -57 -2z"/>
<path d="M16706 2922 c-2 -4 6 -7 20 -7 32 2 39 10 9 13 -13 1 -26 -2 -29 -6z"/>
<path d="M18770 2779 c0 -5 5 -7 10 -4 6 3 10 8 10 11 0 2 -4 4 -10 4 -5 0
-10 -5 -10 -11z"/>
<path d="M12790 2719 c0 -5 5 -7 10 -4 6 3 10 8 10 11 0 2 -4 4 -10 4 -5 0
-10 -5 -10 -11z"/>
</g>
</svg>
